<svg width="47" height="41" viewBox="0 0 47 41" fill="none" xmlns="http://www.w3.org/2000/svg">
<path fill-rule="evenodd" clip-rule="evenodd" d="M10.0932 15.2897C15.2843 15.2897 19.4925 13.8182 19.4925 12.0031C19.4925 10.188 15.2843 8.71649 10.0932 8.71649C4.90216 8.71649 0.69397 10.188 0.69397 12.0031C0.69397 13.8182 4.90216 15.2897 10.0932 15.2897ZM20.7649 25.7725C25.956 25.7725 30.1642 24.301 30.1642 22.4859C30.1642 20.6707 25.956 19.1993 20.7649 19.1993C15.5738 19.1993 11.3656 20.6707 11.3656 22.4859C11.3656 24.301 15.5738 25.7725 20.7649 25.7725ZM18.642 15.4637C18.9585 15.2027 19.4925 15.2365 19.4925 15.6467C19.4925 16.1204 19.2473 16.5724 18.8022 16.9856C18.8022 16.9856 15.951 17.3098 14.6615 17.6896C13.0683 18.1589 10.0932 19.1993 10.0932 19.1993C4.90216 19.1993 0.69397 17.6088 0.69397 15.6467C0.69397 15.2365 1.22803 15.2027 1.54449 15.4637C3.02881 16.6874 6.2984 17.5374 10.0932 17.5374C13.8881 17.5374 17.1577 16.6874 18.642 15.4637ZM30.1642 26.2368C30.1642 25.8266 29.6301 25.7928 29.3136 26.0537C27.8293 27.2774 24.5598 28.1274 20.7649 28.1274C16.9701 28.1274 13.7005 27.2774 12.2162 26.0537C11.8997 25.7928 11.3656 25.8266 11.3656 26.2368C11.3656 28.1988 15.5738 29.7893 20.7649 29.7893C20.7649 29.7893 23.74 28.749 25.3331 28.2797C26.6227 27.8998 29.4738 27.5756 29.4738 27.5756C29.9189 27.1624 30.1642 26.7104 30.1642 26.2368ZM40.3884 36.1249C40.5574 36.3915 40.6469 36.6697 40.6469 36.9558C40.6469 38.9179 36.4388 40.5084 31.2477 40.5084C26.0566 40.5084 21.8484 38.9179 21.8484 36.9558C21.8484 36.6697 21.9379 36.3915 22.1069 36.1249C23.0968 37.6861 26.8137 38.8465 31.2477 38.8465C35.6817 38.8465 39.3986 37.6861 40.3884 36.1249ZM8.98428 23.325C3.79321 23.325 0.69397 21.9922 0.69397 20.0302C0.69397 19.7441 0.783478 19.4659 0.952484 19.1993C1.94232 20.7605 4.55029 21.887 8.98428 21.887V23.325ZM0.69397 24.3028C0.69397 26.2648 3.79321 27.5976 8.98428 27.5976V26.1596C4.55029 26.1596 1.94232 25.033 0.952484 23.4718C0.783478 23.7384 0.69397 24.0166 0.69397 24.3028ZM8.98428 31.981C3.79321 31.981 0.69397 30.6483 0.69397 28.6862C0.69397 28.4001 0.783478 28.1219 0.952484 27.8553C1.94232 29.4165 4.55029 30.5431 8.98428 30.5431V31.981ZM0.69397 32.959C0.69397 34.921 3.79321 36.2538 8.98428 36.2538V34.8158C4.55029 34.8158 1.94232 33.6892 0.952484 32.1281C0.783478 32.3946 0.69397 32.6729 0.69397 32.959ZM19.6559 38.3167C14.4649 38.3167 11.3656 36.9839 11.3656 35.0219C11.3656 34.7357 11.4551 34.4575 11.6241 34.1909C12.614 35.7521 15.222 36.8787 19.6559 36.8787V38.3167ZM11.3656 30.7491C11.3656 32.7112 14.4649 34.0439 19.6559 34.0439V32.6059C15.222 32.6059 12.614 31.4794 11.6241 29.9182C11.4551 30.1848 11.3656 30.463 11.3656 30.7491ZM31.2477 36.4914C36.4388 36.4914 40.6469 35.0199 40.6469 33.2048C40.6469 31.3896 36.4388 29.9182 31.2477 29.9182C26.0566 29.9182 21.8484 31.3896 21.8484 33.2048C21.8484 35.0199 26.0566 36.4914 31.2477 36.4914Z" fill="#A1273C"/>
<path fill-rule="evenodd" clip-rule="evenodd" d="M39.3052 15.0554C39.0196 14.5529 38.4707 14.2593 37.8942 14.3004L29.4403 14.9043C28.4685 14.9737 27.5449 14.4723 27.0738 13.6195L20.1055 1.00458C19.972 0.762863 20.0597 0.458673 20.3014 0.325152C20.5431 0.191631 20.8473 0.27934 20.9808 0.521057L27.9492 13.1359C28.2318 13.6476 28.786 13.9485 29.369 13.9068L37.823 13.303C38.7838 13.2344 39.6985 13.7238 40.1745 14.5612L45.6774 24.2421L45.4151 20.7049C45.3946 20.4295 45.6013 20.1897 45.8767 20.1693C46.1521 20.1488 46.3919 20.3555 46.4123 20.6309L46.8137 26.0423C46.8318 26.2863 46.6716 26.5023 46.4433 26.5626C46.4379 26.566 46.4324 26.5692 46.4268 26.5724C46.2264 26.6863 45.9804 26.6466 45.8253 26.4905L41.1322 23.8719C40.8911 23.7373 40.8047 23.4328 40.9392 23.1916C41.0738 22.9505 41.3783 22.8641 41.6195 22.9986L44.8426 24.797L39.3052 15.0554Z" fill="black"/>
</svg>
