<svg width="72" height="60" viewBox="0 0 72 60" fill="none" xmlns="http://www.w3.org/2000/svg">
<path d="M26.522 8.74826L39.5888 16.2924L28.5626 35.3903L15.4958 27.8462L26.522 8.74826Z" fill="black"/>
<path fill-rule="evenodd" clip-rule="evenodd" d="M25.2034 0.671545C25.5748 0.0289912 26.3968 -0.19081 27.0393 0.180605L46.8185 11.6136C47.461 11.985 47.6808 12.807 47.3094 13.4495C46.938 14.0921 46.116 14.3119 45.4735 13.9404L25.6943 2.5075C25.0517 2.13608 24.8319 1.3141 25.2034 0.671545ZM9.61841 30.3258C8.97583 29.9544 8.15386 30.1743 7.78249 30.8169C7.41112 31.4594 7.63098 32.2814 8.27356 32.6528L28.0535 44.0843C28.6961 44.4557 29.5181 44.2358 29.8895 43.5932C30.2608 42.9507 30.041 42.1287 29.3984 41.7573L9.61841 30.3258Z" fill="#A1273C"/>
<path fill-rule="evenodd" clip-rule="evenodd" d="M25.5383 5.07685L43.2602 15.3086L37.2454 25.7267L70.4683 46.7314C71.0956 47.128 71.2826 47.958 70.886 48.5854C70.4894 49.2127 69.6593 49.3997 69.032 49.0031L35.9004 28.0562L29.5464 39.0617L11.8244 28.8299L25.5383 5.07685ZM39.5888 16.2924L26.522 8.74826L15.4958 27.8462L28.5626 35.3903L39.5888 16.2924Z" fill="black"/>
<path fill-rule="evenodd" clip-rule="evenodd" d="M7.03332 54.6247C5.54897 54.6247 4.34566 55.828 4.34566 57.3123H0V60H39.1745V57.3123H34.8288C34.8288 55.828 33.6255 54.6247 32.1412 54.6247H7.03332Z" fill="black"/>
</svg>
