<svg width="91" height="60" viewBox="0 0 91 60" fill="none" xmlns="http://www.w3.org/2000/svg">
<path fill-rule="evenodd" clip-rule="evenodd" d="M27.877 23.0105L27.6944 23.2159C23.7542 27.6486 16.7319 27.3267 13.2138 22.5521C13.1322 22.4414 12.9828 22.4055 12.8599 22.467L6.4054 25.6942C2.039 27.8774 -0.490627 32.5632 0.079767 37.4115C0.10726 37.6452 0.273365 37.839 0.50008 37.902L0.645208 37.9423C6.24839 39.4988 12.0368 40.2878 17.8522 40.2878H19.9164C19.9977 40.2878 20.0751 40.2527 20.1286 40.1915C22.3635 37.6373 25.1801 35.6583 28.3406 34.4216L34.3069 32.087C34.6644 31.9471 34.8156 31.5233 34.6274 31.1887L30.6748 24.1618C30.5629 23.9629 30.3864 23.8083 30.1746 23.7236L28.2008 22.934C28.0875 22.8887 27.958 22.9193 27.877 23.0105ZM63.0056 23.0105L63.1882 23.2159C67.1284 27.6486 74.1506 27.3267 77.6687 22.5521C77.7503 22.4414 77.8997 22.4055 78.0227 22.467L84.4771 25.6942C88.8435 27.8774 91.3732 32.5632 90.8028 37.4115C90.7753 37.6452 90.6092 37.839 90.3825 37.902L90.2373 37.9423C84.6341 39.4988 78.8457 40.2878 73.0304 40.2878H70.9662C70.8848 40.2878 70.8074 40.2527 70.7539 40.1915C68.519 37.6373 65.7024 35.6583 62.5419 34.4216L56.5756 32.087C56.2181 31.9471 56.0669 31.5233 56.2551 31.1887L60.2078 24.1618C60.3196 23.9629 60.4961 23.8083 60.708 23.7236L62.6818 22.934C62.795 22.8887 62.9245 22.9193 63.0056 23.0105Z" fill="black"/>
<path fill-rule="evenodd" clip-rule="evenodd" d="M16.9602 1.08561L15.6421 1.90088C15.2513 2.14256 14.8944 2.43508 14.5807 2.77077L14.011 3.38043C13.3613 4.07563 12.8816 4.91194 12.6096 5.82372C12.2513 7.02431 12.087 8.27439 12.1229 9.52677L12.1776 11.4329C12.1787 11.4723 12.1435 11.5028 12.1046 11.4961C11.3106 11.3592 10.6353 12.0787 10.8222 12.8624L11.7824 16.8896C11.9167 17.4529 12.4278 17.8447 13.0066 17.8281C13.0368 17.8272 13.0635 17.8475 13.0708 17.8768L13.4525 19.4023C14.1732 22.2833 16.4964 24.4867 19.4115 25.0541L20.1276 25.1935C20.6693 25.2989 21.225 25.3115 21.7709 25.2306C24.8416 24.776 27.3311 22.5071 28.0678 19.4916L28.3999 18.1325C28.4058 18.1082 28.4272 18.0909 28.4522 18.0901C29.2482 18.0673 29.9283 17.5098 30.1068 16.7338L30.9617 13.0179C31.1429 12.2302 30.4363 11.5249 29.6489 11.7077C29.6367 11.7105 29.6259 11.6993 29.6291 11.6873L29.6405 11.6443C30.2339 9.41352 29.9259 7.03887 28.7831 5.03325L28.2225 4.04924C27.9911 3.64314 27.7064 3.26986 27.3759 2.93936C26.7163 2.27971 25.9546 1.73072 25.1202 1.31353L24.0262 0.766519C21.7748 -0.359175 19.101 -0.238429 16.9602 1.08561ZM66.3982 1.08561L65.0801 1.90088C64.6893 2.14256 64.3324 2.43508 64.0187 2.77077L63.449 3.38043C62.7993 4.07563 62.3196 4.91194 62.0476 5.82372C61.6893 7.02431 61.525 8.27439 61.5609 9.52677L61.6155 11.4329C61.6167 11.4723 61.5814 11.5028 61.5426 11.4961C60.7486 11.3592 60.0733 12.0787 60.2602 12.8624L61.2204 16.8896C61.3547 17.4529 61.8657 17.8447 62.4446 17.8281C62.4748 17.8272 62.5015 17.8475 62.5088 17.8768L62.8905 19.4023C63.6112 22.2833 65.9344 24.4867 68.8494 25.0541L69.5655 25.1935C70.1073 25.2989 70.6629 25.3115 71.2089 25.2306C74.2795 24.776 76.7691 22.5071 77.5058 19.4916L77.8379 18.1325C77.8438 18.1082 77.8652 18.0909 77.8902 18.0901C78.6862 18.0673 79.3663 17.5098 79.5448 16.7338L80.3997 13.0179C80.5809 12.2302 79.8742 11.5249 79.0869 11.7077C79.0747 11.7105 79.0639 11.6993 79.0671 11.6873L79.0785 11.6443C79.6719 9.41352 79.3639 7.03887 78.2211 5.03325L77.6605 4.04924C77.4291 3.64314 77.1443 3.26986 76.8138 2.93936C76.1542 2.27971 75.3926 1.73072 74.5582 1.31353L73.4642 0.766519C71.2128 -0.359175 68.539 -0.238429 66.3982 1.08561ZM39.4781 4.96979L38.4076 5.78536L36.9873 7.2057C36.1142 8.07876 35.4564 9.1431 35.066 10.3144C34.5492 11.8648 34.2857 13.4883 34.2857 15.1225V17.5932C34.2857 17.6448 34.2385 17.6836 34.1878 17.6735C33.1502 17.4659 32.2384 18.387 32.4564 19.4225L33.5587 24.6588C33.7155 25.4036 34.3726 25.9368 35.1338 25.9368C35.1735 25.9368 35.2079 25.9644 35.2165 26.0032L35.6436 27.9253C36.4918 31.7419 39.4725 34.7225 43.289 35.5707L44.2162 35.7767C44.9187 35.9328 45.6425 35.9696 46.3572 35.8855C50.4131 35.4084 53.7775 32.5254 54.8705 28.5906L55.3383 26.9064C55.3471 26.8747 55.3759 26.8528 55.4088 26.8528C56.4556 26.8528 57.3708 26.1472 57.6372 25.1349L58.89 20.3744C59.1601 19.3481 58.2613 18.3938 57.2206 18.6019C57.2045 18.6051 57.1908 18.5901 57.1955 18.5743L57.9446 16.0776C58.3508 14.7236 58.5035 13.3063 58.3951 11.8968L58.3892 11.8209C58.2172 9.58408 56.6331 7.70828 54.4566 7.16416C54.4441 7.16103 54.433 7.15358 54.4253 7.1432C50.9216 2.38816 44.1763 1.39021 39.4781 4.96979ZM36.9096 36.4063L41.0159 50.5537C41.2924 51.5061 42.6373 51.5186 42.9313 50.5714L44.3516 45.9963C44.3683 45.9423 44.3673 45.8842 44.3485 45.8308L43.0299 42.0829C42.6945 41.1296 43.1671 40.081 44.1034 39.7008C45.2153 39.2493 46.4595 39.2493 47.5714 39.7008C48.5077 40.081 48.9803 41.1296 48.6449 42.0829L47.3263 45.8308C47.3075 45.8842 47.3064 45.9423 47.3232 45.9963L48.7435 50.5714C49.0375 51.5186 50.3824 51.5061 50.6589 50.5537L54.7566 36.4356C54.9283 35.8442 55.5886 35.547 56.1451 35.8107L62.8705 38.9967C67.935 42.0331 71.4467 47.1034 72.5082 52.9122L72.8301 54.6738C66.9446 57.3986 60.5675 59.1355 54.1106 59.7458L51.2461 59.8966C47.322 60.1031 43.3876 60.0002 39.4796 59.5888C34.6508 59.0805 29.8991 58.0022 25.3238 56.3766L20.531 54.6738L20.2852 50.7136C20.1265 48.1579 20.5192 45.598 21.4367 43.2075C21.7915 42.283 22.5002 41.5381 23.4058 41.1377L35.5449 35.7704C36.0985 35.5257 36.7409 35.825 36.9096 36.4063Z" fill="black"/>
</svg>
