<svg width="69" height="61" viewBox="0 0 69 61" fill="none" xmlns="http://www.w3.org/2000/svg">
<path fill-rule="evenodd" clip-rule="evenodd" d="M13.4349 33.629L16.6689 43.9777H31.1905L34.4245 33.629L37.6584 43.9777H52.1801L55.414 33.629L58.648 43.9777H68.1711L60.5766 50.3065L63.8082 60.0013L55.414 54.1899L47.0199 60.0013L50.2423 50.334L44.6844 46.0586L39.587 50.3065L42.8186 60.0013L34.4245 54.1899L26.0303 60.0013L29.2528 50.334L23.6948 46.0586L18.5974 50.3065L21.829 60.0013L13.4349 54.1899L5.04077 60.0013L8.2632 50.334L0 43.9777H10.201L13.4349 33.629ZM13.4349 40.3342L11.6713 45.9777H5.88024L10.6106 49.6164L8.8355 54.9416L13.4349 51.7574L18.0343 54.9416L16.2684 49.6439L20.6679 45.9777H15.1985L13.4349 40.3342ZM34.4245 40.3342L32.6609 45.9777H26.8698L31.6001 49.6164L29.8251 54.9416L34.4245 51.7574L39.0239 54.9416L37.258 49.6439L41.6575 45.9777H36.188L34.4245 40.3342ZM55.414 40.3342L57.1776 45.9777H62.647L58.2475 49.6439L60.0134 54.9416L55.414 51.7574L50.8146 54.9416L52.5897 49.6164L47.8594 45.9777H53.6505L55.414 40.3342Z" fill="#A1273C"/>
<path d="M11.6713 45.9777L13.4349 40.3342L15.1985 45.9777H20.6679L16.2684 49.6439L18.0343 54.9416L13.4349 51.7574L8.8355 54.9416L10.6106 49.6164L5.88024 45.9777H11.6713Z" fill="#A1273C"/>
<path d="M32.6609 45.9777L34.4245 40.3342L36.188 45.9777H41.6575L37.258 49.6439L39.0239 54.9416L34.4245 51.7574L29.8251 54.9416L31.6001 49.6164L26.8698 45.9777H32.6609Z" fill="#A1273C"/>
<path d="M55.414 40.3342L53.6505 45.9777H47.8594L52.5897 49.6164L50.8146 54.9416L55.414 51.7574L60.0134 54.9416L58.2475 49.6439L62.647 45.9777H57.1776L55.414 40.3342Z" fill="#A1273C"/>
<path fill-rule="evenodd" clip-rule="evenodd" d="M46.9182 11.994C46.9182 18.6182 41.5483 23.9881 34.9242 23.9881C28.3001 23.9881 22.9302 18.6182 22.9302 11.994C22.9302 5.36991 28.3001 0 34.9242 0C41.5483 0 46.9182 5.36991 46.9182 11.994ZM29.6391 40.2637L33.312 27.8676C33.3711 27.6679 33.237 27.4628 33.0304 27.437L32.2246 27.3363C30.3798 27.1057 28.6035 26.4925 27.0093 25.536C26.9569 25.5045 26.8951 25.4924 26.8347 25.5017L26.1032 25.6142C22.3506 26.1916 18.7268 27.4166 15.3935 29.2348C15.126 29.3807 14.9978 29.6944 15.0865 29.986L18.2167 40.2708C18.3448 40.6919 18.7332 40.9796 19.1733 40.9796H28.6803C29.1231 40.9796 29.5132 40.6883 29.6391 40.2637ZM36.0367 27.8676L39.7096 40.2637C39.8354 40.6883 40.2255 40.9796 40.6684 40.9796H50.1753C50.6155 40.9796 51.0038 40.6919 51.132 40.2708L54.2621 29.986C54.3509 29.6944 54.2226 29.3807 53.9551 29.2348C50.6219 27.4166 46.9981 26.1916 43.2454 25.6142L42.514 25.5017C42.4535 25.4924 42.3918 25.5045 42.3394 25.536C40.7452 26.4925 38.9688 27.1057 37.124 27.3363L36.3183 27.437C36.1116 27.4628 35.9775 27.6679 36.0367 27.8676Z" fill="black"/>
</svg>
