<svg width="67" height="60" viewBox="0 0 67 60" fill="none" xmlns="http://www.w3.org/2000/svg">
<path fill-rule="evenodd" clip-rule="evenodd" d="M18.8175 3.0798L17.7427 3.89869L16.3166 5.32479C15.44 6.2014 14.7796 7.27005 14.3875 8.44614C13.8686 10.0028 13.6041 11.6329 13.6041 13.2738V15.7544C13.6041 15.8063 13.5566 15.8452 13.5058 15.835C12.4639 15.6267 11.5484 16.5514 11.7673 17.5912L12.8741 22.8487C13.0316 23.5966 13.6914 24.1319 14.4556 24.1319C14.4955 24.1319 14.53 24.1596 14.5386 24.1986L14.9675 26.1285C15.8191 29.9606 18.8119 32.9533 22.644 33.8049L23.5749 34.0118C24.2803 34.1685 25.0069 34.2055 25.7245 34.121C29.7969 33.6419 33.175 30.7473 34.2724 26.7965L34.7421 25.1054C34.751 25.0736 34.7799 25.0516 34.8129 25.0516C35.8639 25.0516 36.7829 24.3432 37.0504 23.3268L38.3082 18.547C38.5794 17.5165 37.677 16.5583 36.6321 16.7673C36.6159 16.7705 36.6022 16.7554 36.6069 16.7396L37.359 14.2327C37.7668 12.8732 37.9202 11.4501 37.8113 10.035L37.8054 9.95877C37.6327 7.71283 36.0421 5.82942 33.8568 5.28308C33.8442 5.27994 33.8331 5.27246 33.8254 5.26203C30.3075 0.487696 23.5348 -0.514305 18.8175 3.0798ZM20.4896 48.3341L16.6772 34.4707C16.513 33.8737 15.8512 33.5678 15.2901 33.8297L4.00469 39.0962C3.08468 39.5255 2.3729 40.3028 2.02595 41.2569C1.16998 43.6108 0.804305 46.1149 0.951387 48.6153L1.18828 52.6425L5.76994 54.3606C10.0565 55.968 14.526 57.0368 19.076 57.5424L20.6991 57.7227C23.3221 58.0141 25.9649 58.087 28.6 57.9406C31.472 57.7811 34.3224 57.3496 37.113 56.652L40.0216 55.9248C40.1498 55.8928 40.2129 55.7481 40.1493 55.6323C37.1019 50.0916 37.2841 43.3252 40.6125 37.9485C40.9248 37.4441 40.7374 36.7789 40.2068 36.5136L34.9261 33.8732C34.3624 33.5914 33.6818 33.8949 33.5147 34.5025L29.711 48.3341C29.444 49.3049 28.0715 49.317 27.7874 48.3511L26.5038 43.9869C26.4882 43.9338 26.4892 43.8772 26.5067 43.8248L27.8003 39.944C28.0936 39.0641 27.6635 38.1062 26.8109 37.7408C25.7186 37.2726 24.4821 37.2726 23.3898 37.7408C22.5372 38.1062 22.107 39.0641 22.4003 39.944L23.6939 43.8248C23.7114 43.8772 23.7124 43.9338 23.6968 43.9869L22.4132 48.3511C22.1291 49.317 20.7566 49.3049 20.4896 48.3341Z" fill="black"/>
<path fill-rule="evenodd" clip-rule="evenodd" d="M64.9464 47.1243C64.9464 53.1308 60.0772 58 54.0707 58C48.0642 58 43.1949 53.1308 43.1949 47.1243C43.1949 41.1178 48.0642 36.2486 54.0707 36.2486C60.0772 36.2486 64.9464 41.1178 64.9464 47.1243ZM66.9464 47.1243C66.9464 54.2354 61.1817 60 54.0707 60C46.9596 60 41.1949 54.2354 41.1949 47.1243C41.1949 40.0132 46.9596 34.2486 54.0707 34.2486C61.1817 34.2486 66.9464 40.0132 66.9464 47.1243ZM55.0707 39.3069C55.0707 38.7546 54.623 38.3069 54.0707 38.3069C53.5184 38.3069 53.0707 38.7546 53.0707 39.3069V47.17C53.0707 47.7004 53.2814 48.2091 53.6565 48.5842L57.962 52.8897C58.3526 53.2803 58.9857 53.2803 59.3763 52.8897C59.7668 52.4992 59.7668 51.8661 59.3763 51.4755L55.0707 47.17V39.3069Z" fill="#A1273C"/>
</svg>
