<?xml version="1.0" encoding="utf-8"?><svg viewBox="0 0 32 32" xmlns="http://www.w3.org/2000/svg" xmlns:xlink="http://www.w3.org/1999/xlink"><style>:root>svg{display:none}:root>svg:target{display:block}</style><svg viewBox="0 0 20 20" id="arrow-left"><path fill="#717171" d="M14 20a.5.5 0 00.354-.853l-8.646-8.646 8.646-8.646a.5.5 0 00-.707-.707l-9 9a.5.5 0 000 .707l9 9a.498.498 0 00.354.146z"/></svg><svg viewBox="0 0 20 20" id="arrow-right"><path fill="#717171" d="M5 20a.5.5 0 01-.354-.853l8.646-8.646-8.646-8.646a.5.5 0 01.707-.707l9 9a.5.5 0 010 .707l-9 9a.498.498 0 01-.354.146z"/></svg><svg fill="none" viewBox="0 0 20 20" id="arrows-right"><path d="M9.5 19a.517.517 0 01-.354-.14.457.457 0 010-.67L17.793 10 9.146 1.808a.457.457 0 010-.67.52.52 0 01.707 0l9 8.527a.456.456 0 010 .67l-9 8.527A.513.513 0 019.5 19H9.5z" fill="#717171"/><path d="M5.5 19a.517.517 0 01-.354-.14.457.457 0 010-.67L13.793 10 5.146 1.808a.457.457 0 010-.67.52.52 0 01.707 0l9 8.527a.456.456 0 010 .67l-9 8.527A.513.513 0 015.5 19H5.5z" fill="#717171"/><path d="M1.5 19a.517.517 0 01-.354-.14.457.457 0 010-.67L9.793 10 1.146 1.808a.457.457 0 010-.67.52.52 0 01.707 0l9 8.527a.456.456 0 010 .67l-9 8.527A.513.513 0 011.5 19H1.5z" fill="#717171"/></svg><svg viewBox="0 0 32 32" id="briefcase"><path d="M30 8h-8V6c0-1.1-.9-2-2-2h-8c-1.1 0-2 .9-2 2v2H2c-1.1 0-2 .9-2 2v18c0 1.1.9 2 2 2h28c1.1 0 2-.9 2-2V10c0-1.1-.9-2-2-2zM12 6.004L12.004 6h7.993l.004.004V8h-8V6.004zM30 16h-4v3c0 .55-.45 1-1 1h-2c-.55 0-1-.45-1-1v-3H10v3c0 .55-.45 1-1 1H7c-.55 0-1-.45-1-1v-3H2v-2h28v2z"/></svg><svg viewBox="0 0 20 20" id="calendar"><path d="M1 4c0-1.1.9-2 2-2h14a2 2 0 012 2v14a2 2 0 01-2 2H3a2 2 0 01-2-2V4zm2 2v12h14V6H3zm2-6h2v2H5V0zm8 0h2v2h-2V0zM5 9h2v2H5V9zm0 4h2v2H5v-2zm4-4h2v2H9V9zm0 4h2v2H9v-2zm4-4h2v2h-2V9zm0 4h2v2h-2v-2z"/></svg><svg viewBox="0 0 20 20" fill="none" id="mail"><path d="M13.454 9.905C13.341 7.6 11.7 6.214 9.717 6.214h-.074c-2.288 0-3.556 1.875-3.556 4.005 0 2.384 1.535 3.89 3.547 3.89 2.244 0 3.719-1.712 3.826-3.739l-.006-.465zM9.653 4.152c1.528 0 2.966.704 4.02 1.807v.004c0-.53.343-.929.817-.929h.12c.742 0 .894.731.894.963l.004 8.23c-.052.54.534.817.858.472 1.268-1.358 2.785-6.982-.788-10.24-3.33-3.038-7.798-2.537-10.174-.83-2.525 1.816-4.142 5.835-2.571 9.61 1.71 4.117 6.609 5.345 9.52 4.12 1.474-.62 2.155 1.457.624 2.135-2.313 1.027-8.751.923-11.76-4.506C-.813 11.32-.705 4.87 4.684 1.528c4.123-2.558 9.559-1.85 12.835 1.718 3.427 3.73 3.227 10.714-.115 13.43-1.514 1.233-3.763.033-3.748-1.765l-.015-.587a5.616 5.616 0 01-1.828 1.277 5.428 5.428 0 01-2.158.45c-3.02 0-5.677-2.77-5.677-5.918 0-3.179 2.657-5.98 5.677-5.98" fill="#000"/></svg><svg viewBox="0 0 21 20" fill="none" id="phone"><path d="M8.632 11.855c1.16 1.138 2.387 2.19 3.934 2.657 0 0 1.418-3.201 2.79-3.016 1.83.246 4.446 2.332 5.352 4.055.338 1.046-.469 2.148-1.308 3.002-2.781 2.833-7.473 1.326-13.139-3.723C1.501 10.156-.986 3.8 2.213 1.332 2.898.803 3.945-.188 4.896.047c1.812.923 3.862 3.387 4.299 5.25.269 1.15-2.993 3.019-2.993 3.019.465 1.383 1.37 2.498 2.43 3.539z" fill="#000"/></svg><svg viewBox="0 0 20 28" id="rouble"><path d="M16.297 8.828c0-2.094-1.484-3.5-3.687-3.5h-5v7h5c2.203 0 3.687-1.406 3.687-3.5zm3.703 0c0 4.016-2.906 6.828-7.078 6.828H7.609V17.5H15.5c.281 0 .5.219.5.5v2c0 .281-.219.5-.5.5H7.609v3c0 .281-.219.5-.5.5H4.5a.494.494 0 01-.5-.5v-3H.5A.494.494 0 010 20v-2c0-.281.219-.5.5-.5H4v-1.844H.5a.494.494 0 01-.5-.5v-2.328c0-.281.219-.5.5-.5H4V2.5c0-.281.219-.5.5-.5h8.422C17.094 2 20 4.812 20 8.828z"/></svg></svg>