<?xml version="1.0" encoding="utf-8"?><svg viewBox="0 0 800 800" xmlns="http://www.w3.org/2000/svg" xmlns:xlink="http://www.w3.org/1999/xlink"><style>:root>svg{display:none}:root>svg:target{display:block}</style><svg viewBox="0 0 20 20" id="arrow-left"><path fill="#717171" d="M14 20a.5.5 0 00.354-.853l-8.646-8.646 8.646-8.646a.5.5 0 00-.707-.707l-9 9a.5.5 0 000 .707l9 9a.498.498 0 00.354.146z"/></svg><svg viewBox="0 0 20 20" id="arrow-right"><path fill="#717171" d="M5 20a.5.5 0 01-.354-.853l8.646-8.646-8.646-8.646a.5.5 0 01.707-.707l9 9a.5.5 0 010 .707l-9 9a.498.498 0 01-.354.146z"/></svg><svg fill="none" viewBox="0 0 20 20" id="arrows-right"><path d="M9.5 19a.517.517 0 01-.354-.14.457.457 0 010-.67L17.793 10 9.146 1.808a.457.457 0 010-.67.52.52 0 01.707 0l9 8.527a.456.456 0 010 .67l-9 8.527A.513.513 0 019.5 19H9.5z" fill="#717171"/><path d="M5.5 19a.517.517 0 01-.354-.14.457.457 0 010-.67L13.793 10 5.146 1.808a.457.457 0 010-.67.52.52 0 01.707 0l9 8.527a.456.456 0 010 .67l-9 8.527A.513.513 0 015.5 19H5.5z" fill="#717171"/><path d="M1.5 19a.517.517 0 01-.354-.14.457.457 0 010-.67L9.793 10 1.146 1.808a.457.457 0 010-.67.52.52 0 01.707 0l9 8.527a.456.456 0 010 .67l-9 8.527A.513.513 0 011.5 19H1.5z" fill="#717171"/></svg><svg viewBox="0 0 32 32" id="briefcase"><path d="M30 8h-8V6c0-1.1-.9-2-2-2h-8c-1.1 0-2 .9-2 2v2H2c-1.1 0-2 .9-2 2v18c0 1.1.9 2 2 2h28c1.1 0 2-.9 2-2V10c0-1.1-.9-2-2-2zM12 6.004L12.004 6h7.993l.004.004V8h-8V6.004zM30 16h-4v3c0 .55-.45 1-1 1h-2c-.55 0-1-.45-1-1v-3H10v3c0 .55-.45 1-1 1H7c-.55 0-1-.45-1-1v-3H2v-2h28v2z"/></svg><svg viewBox="0 0 20 20" id="calendar"><path d="M1 4c0-1.1.9-2 2-2h14a2 2 0 012 2v14a2 2 0 01-2 2H3a2 2 0 01-2-2V4zm2 2v12h14V6H3zm2-6h2v2H5V0zm8 0h2v2h-2V0zM5 9h2v2H5V9zm0 4h2v2H5v-2zm4-4h2v2H9V9zm0 4h2v2H9v-2zm4-4h2v2h-2V9zm0 4h2v2h-2v-2z"/></svg><svg fill="none" viewBox="0 0 24 24" id="check"><path d="M9.55 18l-5.7-5.7 1.425-1.425L9.55 15.15l9.175-9.175L20.15 7.4 9.55 18z" fill="#000"/></svg><svg fill="none" viewBox="0 0 24 24" id="close"><path d="M19 6.41L17.59 5 12 10.59 6.41 5 5 6.41 10.59 12 5 17.59 6.41 19 12 13.41 17.59 19 19 17.59 13.41 12 19 6.41z" fill="#000"/></svg><svg viewBox="0 0 24 24" fill="none" id="info"><path d="M13 11v6h-2v-6h2zM8.1 21.212A9.738 9.738 0 0012 22a9.738 9.738 0 003.9-.788 10.098 10.098 0 003.175-2.137c.9-.9 1.613-1.958 2.137-3.175A9.738 9.738 0 0022 12a9.738 9.738 0 00-.788-3.9 10.099 10.099 0 00-2.137-3.175c-.9-.9-1.958-1.612-3.175-2.137A9.738 9.738 0 0012 2a9.738 9.738 0 00-3.9.788 10.099 10.099 0 00-3.175 2.137c-.9.9-1.612 1.958-2.137 3.175A9.738 9.738 0 002 12c0 1.383.263 2.683.788 3.9a10.098 10.098 0 002.137 3.175c.9.9 1.958 1.613 3.175 2.137zm9.575-3.537C16.125 19.225 14.233 20 12 20c-2.233 0-4.125-.775-5.675-2.325C4.775 16.125 4 14.233 4 12c0-2.233.775-4.125 2.325-5.675C7.875 4.775 9.767 4 12 4c2.233 0 4.125.775 5.675 2.325C19.225 7.875 20 9.767 20 12c0 2.233-.775 4.125-2.325 5.675zM12 9.3a1.2 1.2 0 100-2.4 1.2 1.2 0 000 2.4z" fill="#000"/></svg><svg viewBox="0 0 20 20" fill="none" id="mail"><path d="M13.454 9.905C13.341 7.6 11.7 6.214 9.717 6.214h-.074c-2.288 0-3.556 1.875-3.556 4.005 0 2.384 1.535 3.89 3.547 3.89 2.244 0 3.719-1.712 3.826-3.739l-.006-.465zM9.653 4.152c1.528 0 2.966.704 4.02 1.807v.004c0-.53.343-.929.817-.929h.12c.742 0 .894.731.894.963l.004 8.23c-.052.54.534.817.858.472 1.268-1.358 2.785-6.982-.788-10.24-3.33-3.038-7.798-2.537-10.174-.83-2.525 1.816-4.142 5.835-2.571 9.61 1.71 4.117 6.609 5.345 9.52 4.12 1.474-.62 2.155 1.457.624 2.135-2.313 1.027-8.751.923-11.76-4.506C-.813 11.32-.705 4.87 4.684 1.528c4.123-2.558 9.559-1.85 12.835 1.718 3.427 3.73 3.227 10.714-.115 13.43-1.514 1.233-3.763.033-3.748-1.765l-.015-.587a5.616 5.616 0 01-1.828 1.277 5.428 5.428 0 01-2.158.45c-3.02 0-5.677-2.77-5.677-5.918 0-3.179 2.657-5.98 5.677-5.98" fill="#000"/></svg><svg fill="none" viewBox="0 0 24 24" id="open"><path d="M14 18l-1.4-1.45L16.15 13H4v-2h12.15L12.6 7.45 14 6l6 6-6 6z" fill="#000"/></svg><svg fill="none" viewBox="0 0 24 24" id="open-cross"><path d="M6.4 19L5 17.6 14.6 8H6V6h12v12h-2V9.4L6.4 19z" fill="#000"/></svg><svg viewBox="0 0 52 52" id="pdf"><path d="M28.6 11.4h5.1a1.11 1.11 0 001.1-1.1 1.32 1.32 0 00-.3-.8l-7.2-7.1a.89.89 0 00-.7-.3 1.11 1.11 0 00-1.1 1.1v5.1a3.12 3.12 0 003.1 3.1zM49.83 32.45A1.43 1.43 0 0048.44 31h-12A1.43 1.43 0 0035 32.44v1.44a1.43 1.43 0 001.4 1.44h6.14l-11 11a1.42 1.42 0 000 2l1 1a1.54 1.54 0 001.09.45 1.32 1.32 0 00.94-.38l11-11v6A1.43 1.43 0 0047 45.83h1.53a1.43 1.43 0 001.47-1.4zM18.35 20.68h-1.46v4.93h1.46a1.56 1.56 0 001.56-1.1 3.93 3.93 0 00.24-1.44 3.61 3.61 0 00-.36-1.77 1.53 1.53 0 00-1.44-.62zM11.29 20.93a1.27 1.27 0 00-.84-.25H9v2.23h1.46a1.18 1.18 0 00.84-.28 1.09 1.09 0 00.3-.86 1 1 0 00-.33-.84z"/><path d="M33.24 16H25.4a4.67 4.67 0 01-4.7-4.6V3.6a1.42 1.42 0 00-1.34-1.5H6.8a4.67 4.67 0 00-4.7 4.6v29.4a4.6 4.6 0 004.62 4.6H24.6v-.1a15.92 15.92 0 0110.2-14.9v-8.1a1.58 1.58 0 00-1.56-1.6zm-20.75 7.65a2.93 2.93 0 01-1.89.56H9v2.71H7.49v-7.55h3.24a2.64 2.64 0 011.76.63 2.3 2.3 0 01.66 1.8 2.35 2.35 0 01-.66 1.85zm8.66 1.9A2.73 2.73 0 0118.62 27h-3.26v-7.63h3.26a3.85 3.85 0 011.17.17 2.49 2.49 0 011.28.95 3.43 3.43 0 01.54 1.22 5.6 5.6 0 01.14 1.29 5 5 0 01-.6 2.55zm7.92-4.84h-3.81v1.74h3.34v1.31h-3.34v3.16h-1.57v-7.54h5.38z"/></svg><svg viewBox="0 0 21 20" fill="none" id="phone"><path d="M8.632 11.855c1.16 1.138 2.387 2.19 3.934 2.657 0 0 1.418-3.201 2.79-3.016 1.83.246 4.446 2.332 5.352 4.055.338 1.046-.469 2.148-1.308 3.002-2.781 2.833-7.473 1.326-13.139-3.723C1.501 10.156-.986 3.8 2.213 1.332 2.898.803 3.945-.188 4.896.047c1.812.923 3.862 3.387 4.299 5.25.269 1.15-2.993 3.019-2.993 3.019.465 1.383 1.37 2.498 2.43 3.539z" fill="#000"/></svg><svg fill="none" viewBox="0 0 24 24" id="plus"><path d="M19 13h-6v6h-2v-6H5v-2h6V5h2v6h6v2z" fill="#000"/></svg><svg fill="none" viewBox="0 0 24 24" id="quote"><path d="M10.318 5l.938 1.323A12.884 12.884 0 008.166 9.4a5.542 5.542 0 00-.999 3.079v.337c.24-.032.461-.06.66-.084.188-.023.377-.036.566-.037a2.872 2.872 0 012.117.843 2.841 2.841 0 01.843 2.093 3.373 3.373 0 01-.89 2.453A3.144 3.144 0 018.105 19a3.405 3.405 0 01-2.73-1.276 4.912 4.912 0 01-1.07-3.271A9.367 9.367 0 015.82 9.329 14.757 14.757 0 0110.318 5zm8.392 0l.937 1.323a12.883 12.883 0 00-3.09 3.078 5.543 5.543 0 00-.999 3.079v.337c.225-.032.437-.06.638-.084a4.92 4.92 0 01.59-.037 2.805 2.805 0 012.104.83 2.901 2.901 0 01.805 2.106c.046.9-.265 1.78-.865 2.453a3.062 3.062 0 01-2.333.915 3.48 3.48 0 01-2.755-1.276 4.846 4.846 0 01-1.095-3.271c.006-1.8.537-3.56 1.528-5.063A15.26 15.26 0 0118.71 5z" fill="#000"/></svg><svg viewBox="0 0 20 28" id="rouble"><path d="M16.297 8.828c0-2.094-1.484-3.5-3.687-3.5h-5v7h5c2.203 0 3.687-1.406 3.687-3.5zm3.703 0c0 4.016-2.906 6.828-7.078 6.828H7.609V17.5H15.5c.281 0 .5.219.5.5v2c0 .281-.219.5-.5.5H7.609v3c0 .281-.219.5-.5.5H4.5a.494.494 0 01-.5-.5v-3H.5A.494.494 0 010 20v-2c0-.281.219-.5.5-.5H4v-1.844H.5a.494.494 0 01-.5-.5v-2.328c0-.281.219-.5.5-.5H4V2.5c0-.281.219-.5.5-.5h8.422C17.094 2 20 4.812 20 8.828z"/></svg><svg fill="none" viewBox="0 0 45 125" id="see-next"><path d="M40.643 115.293c-1.15-.664-2.412-.783-3.512-.255l.297.67c.95-.43 1.954-.312 2.854.209 1.704.984 2.247 2.924 1.19 4.753-1.057 1.828-3.008 2.327-4.712 1.342-.9-.52-1.504-1.331-1.606-2.369l-.729.077c.084 1.231.825 2.251 1.975 2.915 2.12 1.225 4.53.604 5.778-1.557 1.241-2.147.584-4.56-1.535-5.785zM24.735 114.091l6.935-2.494-1.075 7.283.607.496 5.285-6.467-.57-.466-4.465 5.464.986-6.922-.284-.233-6.61 2.348 4.475-5.476-.57-.466-5.284 6.468.57.465zM25.334 102.585c-1.568-1.817-4.06-2.011-5.938-.391-1.877 1.621-2.05 4.115-.481 5.932 1.568 1.817 4.061 2.011 5.938.391 1.878-1.621 2.05-4.115.481-5.932zm-.545.47c1.255 1.454 1.118 3.474-.469 4.844-1.587 1.369-3.605 1.21-4.86-.243-1.255-1.454-1.118-3.474.47-4.844 1.586-1.37 3.605-1.21 4.86.243zM11.002 97.12l3.984 6.149.605-.392-1.775-2.739 6.405-4.15-.435-.671-6.405 4.15-1.775-2.74-.604.392zM7.784 90.869c.635 1.363 1.85 2.191 3.288 2.246l-1.784.83.324.697 10.385-4.837-.338-.725-4.54 2.114c.848-1.136.974-2.571.353-3.906-.993-2.132-3.31-3.012-5.587-1.951-2.262 1.053-3.094 3.4-2.1 5.532zm7.055-3.233c.81 1.74.128 3.647-1.772 4.532-1.9.885-3.8.18-4.61-1.56-.81-1.74-.134-3.661 1.766-4.546 1.9-.885 3.805-.167 4.616 1.574zM7.102 76.174c-2.381.693-3.566 2.804-2.927 5 .64 2.198 2.807 3.35 5.189 2.657 2.38-.693 3.575-2.89 2.868-5.317-.353-1.214-1.12-2.19-2.186-2.647l-.378.593c.932.396 1.573 1.226 1.869 2.24.558 1.92-.326 3.693-2.208 4.325l-2.007-6.899c-.077.023-.158.03-.22.048zm-2.251 4.804c-.496-1.705.381-3.327 2.086-3.94l1.788 6.145c-1.787.387-3.378-.5-3.874-2.205zM1.683 68.724l1.136 7.24.711-.112-.506-3.225 7.54-1.183-.124-.79-7.54 1.183-.506-3.225-.711.112zM4.409 62.553l.046 2.544-3.006.092.024.8 8.348-.257-.065-3.151c-.051-2.192-1.047-3.346-2.822-3.291-1.695.052-2.573 1.184-2.525 3.263zm4.708.063l.04 2.336-4.078.126-.056-2.336c-.02-1.712.577-2.595 1.936-2.636 1.375-.043 2.138.814 2.158 2.51zM10.43 47.41l-7.536-1.303-1 5.787 2.692.578c2.344.535 4.689 1.152 4.552 2.41l-.084.49 2.743.474.131-.757-2.05-.354 1.347-7.789 2.05.354.127-.74-2.743-.475-.23 1.325zm-5.67 4.345l-2.034-.448.74-4.289 6.828 1.18-.96 5.55c-.459-1.005-2.57-1.565-4.575-1.993zM4.899 38.75c-.412 1.228-.374 2.524.06 3.547l.673-.197c-.373-.85-.452-1.974-.086-3.066.52-1.547 1.578-2.087 3.049-1.593l.637.214-.91 2.715c-.738 2.2.024 3.299 1.222 3.7 1.35.454 2.622-.318 3.217-2.093.463-1.38.227-2.54-.515-3.345l1.41.473.245-.728-5.021-1.684c-1.957-.657-3.325.1-3.981 2.057zm7.276 2.912c-.469 1.396-1.375 1.986-2.407 1.64-.91-.305-1.4-1.11-.85-2.749l.906-2.7 1.486.499c.985.836 1.312 1.975.864 3.31zM8.08 30.83l2.498 1.443c2.09 1.216 4.168 2.461 3.518 3.728-.051.1-.145.213-.232.313l.575.385c.174-.199.32-.376.414-.561.796-1.552-1.35-3.012-3.883-4.49l-1.928-1.115 1.986-3.873 6.791 3.483.366-.712-7.432-3.811-2.672 5.21zM17.152 21.387l-1.48 2.069-2.468-1.72-.458.656 6.853 4.776 1.828-2.568c1.266-1.79 1.156-3.31-.301-4.325-1.392-.97-2.771-.585-3.974 1.112zm3.74 2.86l-1.361 1.898-3.348-2.332 1.35-1.908c1.004-1.386 2.01-1.738 3.126-.96 1.129.786 1.23 1.929.234 3.302zM25.588 7.331l5.418 5.399-3.106 3.116-5.417-5.398-.565.567 5.417 5.398-3.128 3.14-5.418-5.399-.564.567 5.916 5.895 7.928-7.956-5.916-5.895-.565.566zM37.755 3.597C36.346 1.557 33.97 1.1 32.085 2.4c-1.882 1.3-2.29 3.721-.88 5.762 1.409 2.04 3.87 2.48 5.95 1.043 1.04-.719 1.724-1.755 1.82-2.91l-.681-.171c-.081 1.008-.666 1.879-1.535 2.48-1.645 1.136-3.607.857-4.8-.73l5.91-4.082c-.045-.066-.077-.141-.114-.194zm-5.269-.619c1.461-1.01 3.277-.688 4.397.736L31.617 7.35c-.931-1.574-.592-3.364.869-4.373z" fill="#323031"/></svg></svg>