<svg width="94" height="60" viewBox="0 0 94 60" fill="none" xmlns="http://www.w3.org/2000/svg">
<path fill-rule="evenodd" clip-rule="evenodd" d="M39.5151 0L39.5449 0.000877738L59.6795 0.59307C61.1516 0.636369 62.4809 1.48517 63.1396 2.80249L68.6588 13.841L69.8063 11.453C70.1393 10.76 70.8401 10.3192 71.609 10.3192H77.0069C78.2586 10.3192 79.2028 11.4561 78.9728 12.6866L78.6123 14.616C78.4456 15.5079 77.6994 16.1758 76.7946 16.2431L70.6092 16.7028C70.4237 16.7166 70.2448 16.7055 70.0748 16.6729L70.1041 16.7315L68.6037 16.8315L62.6637 17.2275C61.0878 17.3326 59.8633 18.6415 59.8633 20.2209V45.1452C59.8633 46.2498 58.9679 47.1452 57.8633 47.1452H15.3635V47.3698C15.3635 49.0267 14.0203 50.3698 12.3635 50.3698H4.75481C3.09796 50.3698 1.75481 49.0267 1.75481 47.3698V23.7378C1.75481 21.6864 2.80287 19.7772 4.53356 18.6759L6.73307 17.2762L2.15734 16.8949C1.24524 16.8189 0.501113 16.1334 0.350644 15.2306L0.0277071 13.293C-0.17547 12.0739 0.764616 10.9642 2.0005 10.9642H6.60989C7.40994 10.9642 8.13302 11.441 8.44818 12.1763L9.4681 14.5562C9.51902 14.675 9.55753 14.7948 9.58443 14.9144L16.5309 2.62458C17.2192 1.40676 18.4937 0.637011 19.892 0.59464L39.4852 0.000904322L39.5151 0ZM39.516 2.00089L19.9525 2.59372C19.2534 2.61491 18.6162 2.99978 18.272 3.60869L11.9274 14.8337H66.9191L61.3507 3.69691C61.0214 3.03825 60.3568 2.61385 59.6207 2.59221L39.516 2.00089ZM10.1751 17.4564C10.4255 17.2971 10.6369 17.0843 10.7944 16.8337H59.1853C58.3627 17.7269 57.8633 18.9187 57.8633 20.2209V45.1452H15.3635C14.2589 45.1452 13.3635 46.0406 13.3635 47.1452V47.3698C13.3635 47.9221 12.9157 48.3698 12.3635 48.3698H4.75481C4.20252 48.3698 3.75481 47.9221 3.75481 47.3698V23.7378C3.75481 22.3702 4.45351 21.0974 5.60731 20.3632L10.1751 17.4564ZM27.6152 33.1317C27.8556 32.2661 28.6438 31.667 29.5422 31.667H38.5481H48.8439C49.7423 31.667 50.5305 32.2661 50.771 33.1317L53.0332 41.2756H25.353L27.6152 33.1317ZM29.5422 29.667C27.7454 29.667 26.1691 30.8651 25.6881 32.5964L23.4259 40.7404C23.0719 42.0147 24.0303 43.2756 25.353 43.2756H53.0332C54.3558 43.2756 55.3142 42.0147 54.9602 40.7404L52.698 32.5964C52.2171 30.8651 50.6408 29.667 48.8439 29.667H38.5481H29.5422ZM5.62436 29.1981C5.62436 28.0107 6.65285 27.0848 7.83373 27.2091L18.0873 28.2884C19.1052 28.3955 19.8779 29.2539 19.8779 30.2774V32.7808C19.8779 33.9682 18.8494 34.8941 17.6686 34.7698L7.41499 33.6905C6.3971 33.5834 5.62436 32.725 5.62436 31.7015V29.1981ZM17.8779 30.2774L7.62436 29.1981V31.7015L17.8779 32.7808V30.2774ZM7.26928 41.2756C6.717 41.2756 6.26928 41.7234 6.26928 42.2756C6.26928 42.8279 6.717 43.2756 7.26928 43.2756H16.2982C16.8505 43.2756 17.2982 42.8279 17.2982 42.2756C17.2982 41.7234 16.8505 41.2756 16.2982 41.2756H7.26928ZM33.3561 4.87C33.3561 4.31771 33.8038 3.87 34.3561 3.87H43.3851C43.9374 3.87 44.3851 4.31771 44.3851 4.87C44.3851 5.42228 43.9374 5.87 43.3851 5.87H34.3561C33.8038 5.87 33.3561 5.42228 33.3561 4.87ZM6.60989 12.9642H2.0005L2.32343 14.9018L7.62981 15.344L6.60989 12.9642ZM77.0069 12.3192H71.609L70.461 14.7083L76.6463 14.2486L77.0069 12.3192Z" fill="black"/>
<path fill-rule="evenodd" clip-rule="evenodd" d="M78.0321 21.3971C78.1504 21.3756 78.2716 21.3756 78.3899 21.3971L90.5783 23.6132C91.0537 23.6996 91.3994 24.1138 91.3994 24.597V44.5849C91.3994 44.8774 91.2744 45.1509 91.0554 45.3405C88.6032 47.4643 85.2233 50.4214 82.4545 52.9108C81.0713 54.1545 79.834 55.2874 78.9398 56.1433C78.5713 56.496 78.2536 56.8088 78.0052 57.0667C77.8403 56.9307 77.6482 56.7684 77.4304 56.5807C76.5526 55.8243 75.324 54.7153 73.9346 53.438C71.1587 50.886 67.7706 47.6893 65.3291 45.3641C65.1333 45.1777 65.0227 44.9199 65.0227 44.6445V24.597C65.0227 24.1138 65.3683 23.6996 65.8438 23.6132L78.0321 21.3971ZM78.7477 19.4294C78.3928 19.3649 78.0292 19.3649 77.6744 19.4294L65.486 21.6454C64.0595 21.9048 63.0227 23.1472 63.0227 24.597V44.6445C63.0227 45.4622 63.354 46.245 63.9498 46.8125C66.3952 49.1413 69.7928 52.347 72.581 54.9103C73.9736 56.1906 75.2217 57.3175 76.1249 58.0958C76.573 58.4819 76.9532 58.797 77.2296 59.0036C77.3573 59.0991 77.5086 59.2063 77.6511 59.2804L77.6552 59.2826C77.7021 59.3071 77.8855 59.4029 78.1218 59.4181C78.255 59.4267 78.5665 59.4196 78.8508 59.1789C78.9893 59.0616 79.0762 58.9282 79.1298 58.8003C79.1696 58.752 79.2317 58.6812 79.3213 58.5852C79.5464 58.3438 79.8853 58.0068 80.3227 57.5882C81.1939 56.7543 82.4127 55.638 83.7918 54.3981C86.5476 51.9202 89.9172 48.9721 92.3647 46.8523C93.0245 46.2809 93.3994 45.4549 93.3994 44.5849V24.597C93.3994 23.1472 92.3625 21.9048 90.936 21.6454L78.7477 19.4294ZM78.25 43.0052L88.5688 33.3313L87.201 31.8722L77.5523 40.9179L71.7858 35.728L70.4479 37.2146L76.8971 43.0189L77.5799 43.6334L78.25 43.0052Z" fill="#A1273C"/>
</svg>
