<svg viewBox="0 0 72 61" fill="none" xmlns="http://www.w3.org/2000/svg">
<path fill-rule="evenodd" clip-rule="evenodd" d="M63.4797 16.1687C63.4797 23.9911 57.1384 30.3324 49.316 30.3324C41.4935 30.3324 35.1522 23.9911 35.1522 16.1687C35.1522 8.34625 41.4935 2.00493 49.316 2.00493C57.1384 2.00493 63.4797 8.34625 63.4797 16.1687ZM65.4797 16.1687C65.4797 25.0957 58.2429 32.3324 49.316 32.3324C40.389 32.3324 33.1522 25.0957 33.1522 16.1687C33.1522 7.24168 40.389 0.00492859 49.316 0.00492859C58.2429 0.00492859 65.4797 7.24168 65.4797 16.1687ZM17.8356 54.4787L9.43316 34.9602L2.70045 37.8585L11.1029 57.3771L17.8356 54.4787ZM10.4794 32.3324L0.0726318 36.8123L10.0567 60.0049L20.4634 55.525L10.4794 32.3324ZM13.14 53.2341C13.377 53.2785 13.6051 53.1224 13.6495 52.8854C13.6939 52.6484 13.5377 52.4202 13.3007 52.3759C13.0637 52.3315 12.8356 52.4876 12.7912 52.7246C12.7469 52.9616 12.903 53.1897 13.14 53.2341ZM12.7719 55.2C14.0946 55.4477 15.3676 54.5762 15.6153 53.2535C15.863 51.9308 14.9916 50.6577 13.6689 50.41C12.3462 50.1623 11.0731 51.0338 10.8254 52.3565C10.5777 53.6792 11.4492 54.9523 12.7719 55.2Z" fill="#a1273c"/>
<path fill-rule="evenodd" clip-rule="evenodd" d="M44.2936 7.67271V7.68144H44.2479V9.68144H44.2936V16.292H42.6199V18.292H44.2936V20.5021H42.62V22.5021H44.2936V25.8505H46.2936V22.5021H51.1943V20.5021H46.2936V18.292H53.9752C54.776 18.292 55.5658 18.1055 56.282 17.7475C59.927 15.9251 60.1191 10.7948 56.6206 8.70495L56.1936 8.44992C55.3517 7.94701 54.3893 7.68145 53.4086 7.68145L46.2936 7.68144V7.67271H44.2936ZM46.2936 16.292V9.68144L53.4086 9.68145C54.0282 9.68145 54.6361 9.84921 55.168 10.1669L55.5949 10.4219C57.737 11.7015 57.6194 14.8428 55.3876 15.9586C54.9491 16.1778 54.4655 16.292 53.9752 16.292H46.2936ZM67.4347 35.4498C67.7466 35.3354 68.0919 35.3553 68.3886 35.5048L68.6353 35.6291C68.9189 35.772 69.0833 36.0765 69.0472 36.392C68.9477 37.2621 68.447 38.0357 67.6939 38.4828L58.9179 43.694L55.8018 45.0247C49.8754 47.5557 43.4853 48.8195 37.0416 48.7352L34.9381 48.7076C33.6914 48.6913 32.4488 48.5591 31.2266 48.3127C26.9669 47.454 22.5466 47.9142 18.5552 49.6321L18.015 49.8373L18.8225 51.7131L19.3459 51.4692C22.9637 49.9121 26.9703 49.4949 30.8313 50.2733C32.1751 50.5442 33.5412 50.6895 34.9119 50.7075L37.0155 50.735C43.7379 50.823 50.4045 49.5045 56.5873 46.864L59.8252 45.4812L68.7151 40.2025C70.0056 39.4362 70.8637 38.1105 71.0343 36.6193C71.1656 35.4712 70.5672 34.363 69.5352 33.843L69.2885 33.7187C68.4978 33.3203 67.5775 33.2672 66.7462 33.572L52.9745 38.6214C52.6437 37.498 51.6576 36.6088 50.3811 36.4982L43.297 35.8844C42.8624 35.8467 42.4319 35.7721 42.0101 35.6614L41.3098 35.4775C39.1433 34.9087 37.0593 34.0628 35.1094 32.9606L32.1301 31.2767C31.2331 30.7697 30.2727 30.3845 29.2741 30.1311L28.0959 29.8322C26.2796 29.3714 24.3901 29.2748 22.5362 29.5479C20.7283 29.8141 19.0266 30.5663 17.6128 31.7241L14.7795 34.0443L11.978 35.8136L12.7771 37.6699L15.9525 35.6687L18.8799 33.2715C20.0136 32.3431 21.378 31.74 22.8277 31.5265C24.4203 31.2919 26.0437 31.3749 27.6041 31.7708L28.7822 32.0697C29.6087 32.2794 30.4036 32.5982 31.1459 33.0178L34.1253 34.7017C36.225 35.8885 38.4691 36.7994 40.8019 37.4119L41.5022 37.5958C42.0339 37.7354 42.5766 37.8294 43.1243 37.8769L50.2085 38.4907C50.8245 38.5441 51.2331 39.1535 51.0487 39.7436C50.6464 41.022 49.9299 41.769 48.9144 42.2214C47.8387 42.7006 46.3657 42.8749 44.4424 42.8128C42.5314 42.751 40.2923 42.4624 37.7336 42.1015C37.3272 42.0441 36.9132 41.9851 36.4919 41.9249C34.2778 41.609 31.8632 41.2644 29.3017 40.9955C28.7524 40.9379 28.2604 41.3364 28.2027 41.8856C28.1451 42.4349 28.5436 42.9269 29.0929 42.9846C31.6141 43.2493 33.9869 43.5878 36.201 43.9037C36.6246 43.9641 37.0424 44.0238 37.4543 44.0819C40.0026 44.4413 42.3437 44.746 44.3779 44.8117C46.3998 44.877 48.2369 44.7127 49.7282 44.0483C51.1392 43.4198 52.1828 42.3691 52.7891 40.8195L67.4347 35.4498Z" fill="black"/>
</svg>
