<svg width="76" height="60" viewBox="0 0 76 60" fill="none" xmlns="http://www.w3.org/2000/svg">
<path fill-rule="evenodd" clip-rule="evenodd" d="M41.0574 48.6499L40.7138 48.2997L39.2861 49.7003L39.6297 50.0505C42.639 53.1181 46.5536 55.1387 50.7973 55.815C53.9757 56.3215 57.2293 56.0562 60.2836 55.0413L64.2679 53.7174L72.1376 57.099L73.9163 57.8633L73.5102 55.9705L71.5345 46.7621L73.2441 42.3266C74.4987 39.0716 74.8165 35.5302 74.1614 32.1039L73.9733 31.12C73.3946 28.0932 72.0461 25.2665 70.0578 22.9121C68.4523 21.0111 66.4691 19.4648 64.234 18.3713L63.3958 17.9613C61.3307 16.951 59.1166 16.2794 56.8383 15.9721C53.5674 15.531 50.2389 15.8508 47.1118 16.9068L46.6801 17.0525L47.3199 18.9474L47.7517 18.8016C50.5871 17.8442 53.6052 17.5542 56.571 17.9542C58.6368 18.2328 60.6445 18.8418 62.5169 19.7578L63.3551 20.1679C65.3411 21.1394 67.1033 22.5134 68.5298 24.2025C70.2965 26.2945 71.4946 28.8062 72.0088 31.4956L72.197 32.4795C72.7819 35.5389 72.4982 38.7009 71.378 41.6073L69.5612 46.3209L69.454 46.599L69.5165 46.8903L71.1486 54.4972L64.7082 51.7298L64.3588 51.5797L63.998 51.6995L59.6529 53.1433C56.903 54.0571 53.9737 54.296 51.112 53.8399C47.2913 53.2311 43.7668 51.4118 41.0574 48.6499ZM24.9545 34.8054V35.4958H27.2685V34.8054C27.2855 33.8679 27.392 33.0796 27.5881 32.4404C27.7841 31.7926 28.1079 31.2174 28.5597 30.7145C29.0114 30.2117 29.6207 29.7046 30.3878 29.1932C31.1974 28.6648 31.8707 28.1023 32.4077 27.5057C32.9531 26.9091 33.3622 26.2571 33.6349 25.5497C33.9077 24.8424 34.044 24.0583 34.044 23.1975C34.044 21.8935 33.7415 20.7387 33.1364 19.733C32.5312 18.7188 31.6918 17.9219 30.6179 17.3424C29.544 16.7543 28.2997 16.4603 26.8849 16.4603C25.5298 16.4603 24.3026 16.7458 23.2031 17.3168C22.1037 17.8793 21.2258 18.6762 20.5696 19.7074C19.9133 20.7387 19.5639 21.9574 19.5213 23.3637H21.9375C21.9801 22.3068 22.2315 21.4205 22.6918 20.7046C23.1605 19.9801 23.7614 19.4347 24.4943 19.0682C25.2358 18.6932 26.0327 18.5057 26.8849 18.5057C27.7798 18.5057 28.5937 18.6975 29.3267 19.081C30.0597 19.456 30.6392 19.9887 31.0653 20.679C31.5 21.3693 31.7173 22.1747 31.7173 23.0952C31.7173 23.7429 31.6023 24.3438 31.3722 24.8978C31.1506 25.4432 30.8224 25.946 30.3878 26.4063C29.9616 26.858 29.4332 27.2884 28.8026 27.6975C27.9588 28.2344 27.2514 28.7969 26.6804 29.385C26.1179 29.9645 25.6918 30.6762 25.402 31.5199C25.1122 32.3637 24.9631 33.4588 24.9545 34.8054ZM24.8778 42.6549C25.2443 43.0128 25.679 43.1918 26.1818 43.1918C26.5227 43.1918 26.8295 43.1108 27.1023 42.9489C27.3835 42.7784 27.6051 42.5526 27.767 42.2713C27.9375 41.9901 28.0227 41.6833 28.0227 41.3509C28.0227 40.8395 27.8395 40.4049 27.473 40.0469C27.1151 39.6889 26.6847 39.51 26.1818 39.51C25.679 39.51 25.2443 39.6889 24.8778 40.0469C24.5199 40.4049 24.3409 40.8395 24.3409 41.3509C24.3409 41.8537 24.5199 42.2884 24.8778 42.6549Z" fill="#A1273C"/>
<path fill-rule="evenodd" clip-rule="evenodd" d="M29.2073 4.7391C24.7106 4.23947 20.1625 4.96405 16.0437 6.83622L15.7338 6.9771C12.5386 8.42947 9.70745 10.5762 7.44665 13.2609C4.24829 17.0589 2.32919 21.7689 1.96239 26.7207L1.93269 27.1216C1.63835 31.0952 2.30406 35.0814 3.87365 38.7438L5.93108 43.5445L2.55131 53.6838L1.93912 55.5203L3.79116 54.9567L15.0061 51.5434L20.72 53.21C24.8208 54.4061 29.1747 54.4296 33.2882 53.2778L34.4816 52.9436C38.1138 51.9266 41.423 49.9913 44.0901 47.3241C46.2437 45.1705 47.9258 42.5926 49.0297 39.7541L49.037 39.7352C49.4157 40.0538 49.8551 40.2131 50.3551 40.2131C50.7339 40.2131 51.0748 40.1231 51.3778 39.9432C51.6903 39.7538 51.9365 39.5028 52.1165 39.1903C52.3059 38.8778 52.4006 38.5369 52.4006 38.1676C52.4006 37.5994 52.2017 37.1165 51.804 36.7188C51.4062 36.321 50.9233 36.1222 50.3551 36.1222C50.332 36.1222 50.3091 36.1225 50.2862 36.1232C50.801 34.2422 51.1108 32.3082 51.2085 30.355L51.2612 29.3012C51.4249 26.0268 50.8793 22.7557 49.6617 19.7117C48.1331 15.8902 45.5969 12.5547 42.323 10.0604L41.8622 9.70927C38.2787 6.97896 34.0205 5.2739 29.5429 4.7764L29.2073 4.7391ZM16.8713 8.65696C20.662 6.9339 24.8479 6.26704 28.9864 6.72687L29.322 6.76416C33.4393 7.22164 37.3549 8.78951 40.6501 11.3001L41.1109 11.6512C44.0971 13.9264 46.4105 16.9688 47.8047 20.4544C48.9153 23.231 49.413 26.2147 49.2637 29.2013L49.211 30.2552C49.0774 32.9266 48.5151 35.5592 47.5457 38.0521L47.1657 39.0292C46.1623 41.6093 44.6334 43.9524 42.6759 45.9099C40.2516 48.3342 37.2438 50.0933 33.9423 51.0177L32.7489 51.3519C28.9952 52.4029 25.0221 52.3815 21.28 51.29L15.28 49.54L14.9939 49.4566L14.7088 49.5433L5.06086 52.4797L7.94868 43.8162L8.06891 43.4555L7.91914 43.1061L5.71194 37.9559C4.2687 34.5884 3.65658 30.9231 3.92723 27.2693L3.95692 26.8684C4.29264 22.3363 6.04913 18.0254 8.97647 14.5492C11.0457 12.0919 13.6369 10.1271 16.5614 8.79783L16.8713 8.65696ZM55.6484 39.6165C56.0556 40.0142 56.5386 40.2131 57.0973 40.2131C57.4761 40.2131 57.817 40.1231 58.12 39.9432C58.4325 39.7538 58.6787 39.5028 58.8587 39.1903C59.048 38.8778 59.1427 38.5369 59.1427 38.1676C59.1427 37.5994 58.9439 37.1165 58.5462 36.7188C58.1484 36.321 57.6655 36.1222 57.0973 36.1222C56.5386 36.1222 56.0556 36.321 55.6484 36.7188C55.2507 37.1165 55.0518 37.5994 55.0518 38.1676C55.0518 38.7263 55.2507 39.2093 55.6484 39.6165ZM62.3906 39.6165C62.7978 40.0142 63.2808 40.2131 63.8395 40.2131C64.2183 40.2131 64.5592 40.1231 64.8622 39.9432C65.1747 39.7538 65.4209 39.5028 65.6008 39.1903C65.7902 38.8778 65.8849 38.5369 65.8849 38.1676C65.8849 37.5994 65.6861 37.1165 65.2883 36.7188C64.8906 36.321 64.4077 36.1222 63.8395 36.1222C63.2808 36.1222 62.7978 36.321 62.3906 36.7188C61.9929 37.1165 61.794 37.5994 61.794 38.1676C61.794 38.7263 61.9929 39.2093 62.3906 39.6165Z" fill="black"/>
</svg>
