<svg width="73" height="62" viewBox="0 0 73 62" fill="none" xmlns="http://www.w3.org/2000/svg">
<path fill-rule="evenodd" clip-rule="evenodd" d="M46.4051 8.77669C50.2728 3.59483 58.2029 4.14433 61.3189 9.81012C61.6516 10.4151 61.8617 11.0798 61.937 11.7661L63.5161 26.1576C63.5763 26.7066 64.0702 27.1028 64.6192 27.0425C65.1682 26.9823 65.5644 26.4884 65.5041 25.9394L63.9251 11.548C63.821 10.6 63.5309 9.68191 63.0714 8.84631C59.2543 1.90587 49.5402 1.23274 44.8023 7.58039L44.3676 8.16284C43.4453 9.39856 42.8954 10.8722 42.7829 12.4101L41.7906 25.9756C41.7503 26.5264 42.1642 27.0056 42.715 27.0458C43.2658 27.0861 43.745 26.6723 43.7853 26.1215L44.7776 12.556C44.8623 11.3985 45.2761 10.2893 45.9704 9.35914L46.4051 8.77669ZM41.4983 37.5555C40.2212 37.3837 38.9273 37.3776 37.6487 37.5373L37.2788 37.5835C35.4477 37.8122 33.9646 39.18 33.5889 40.9867C33.5288 41.2757 33.4985 41.5701 33.4985 41.8653V42.0923V43.2946C33.4985 44.1596 33.6668 45.0163 33.9939 45.8171L34.5659 47.2174C35.1273 48.5919 36.2852 49.635 37.7106 50.0504C38.4008 50.2515 39.1271 50.2973 39.8371 50.1845L39.9733 50.1628C41.7865 49.8746 43.3351 48.6981 44.0989 47.0286L44.6818 45.7545C45.035 44.9825 45.2178 44.1435 45.2178 43.2946V42.0923V41.8701C45.2178 41.5717 45.1872 41.2741 45.1264 40.982L45.114 40.9221C44.7447 39.1466 43.2955 37.7972 41.4983 37.5555ZM31.4985 43.2946C31.4985 44.4189 31.7172 45.5326 32.1424 46.5734L32.7144 47.9737C33.5065 49.9128 35.1401 51.3844 37.151 51.9705C38.1248 52.2543 39.1494 52.3189 40.1511 52.1597L40.2873 52.138C42.7618 51.7446 44.8752 50.1391 45.9176 47.8607L46.5005 46.5866C46.9731 45.5535 47.2178 44.4307 47.2178 43.2946V42.0923V41.8701C47.2178 41.4349 47.1731 41.0009 47.0845 40.5748L47.0721 40.5149C46.5301 37.9088 44.403 35.9282 41.7649 35.5733C40.3172 35.3786 38.8504 35.3717 37.4009 35.5527L37.0309 35.5989C34.3511 35.9336 32.1807 37.9354 31.6308 40.5795C31.5429 41.0025 31.4985 41.4333 31.4985 41.8653V42.0923V43.2946ZM52.6491 37.129C52.4736 37.1111 52.2987 37.0884 52.1249 37.0611C50.5473 36.8132 49.1278 35.897 48.2657 34.5423C47.823 33.8467 47.4607 33.103 47.1859 32.3256L46.4183 30.1544C46.2342 29.6337 46.507 29.0624 47.0277 28.8783C47.5484 28.6942 48.1198 28.9671 48.3039 29.4878L49.0715 31.6589C49.2959 32.2936 49.5916 32.9007 49.953 33.4685C50.5022 34.3314 51.4162 34.9252 52.4353 35.0854C53.2327 35.2107 54.0558 35.2122 54.8504 35.0873L54.9565 35.0707C55.9236 34.9187 56.7787 34.3585 57.3044 33.5326L57.5003 33.2247C57.7585 32.8189 57.9699 32.385 58.1303 31.9314L58.7921 30.0595C59.0611 29.2986 59.804 28.8099 60.6093 28.8641L62.5151 28.9924C66.2796 29.2459 69.667 31.3676 71.5382 34.6439C72.4577 36.254 72.9414 38.076 72.9414 39.9301V57.307C72.9414 57.8593 72.4937 58.307 71.9414 58.307C71.3891 58.307 70.9414 57.8593 70.9414 57.307V39.9301C70.9414 38.4239 70.5485 36.9438 69.8015 35.6358C68.2626 32.9413 65.4767 31.1964 62.3807 30.9879L60.6269 30.8698L60.0159 32.5981C59.805 33.1944 59.5272 33.7649 59.1875 34.2985L58.9916 34.6064C58.1578 35.9166 56.8012 36.8053 55.2669 37.0464L55.1608 37.0631C54.991 37.0898 54.8203 37.1119 54.6491 37.1294V43.2946C54.6491 43.8469 54.2013 44.2946 53.6491 44.2946C53.0968 44.2946 52.6491 43.8469 52.6491 43.2946V37.129ZM65.5101 41.1388C65.5101 40.5865 65.0624 40.1388 64.5101 40.1388C63.9579 40.1388 63.5101 40.5865 63.5101 41.1388V59.4628C63.5101 60.015 63.9579 60.4628 64.5101 60.4628C65.0624 60.4628 65.5101 60.015 65.5101 59.4628V41.1388ZM36.5 42.2946C35.9477 42.2946 35.5 42.7423 35.5 43.2946C35.5 43.8469 35.9477 44.2946 36.5 44.2946H37.0716C37.6239 44.2946 38.0716 43.8469 38.0716 43.2946C38.0716 42.7423 37.6239 42.2946 37.0716 42.2946H36.5ZM44.0432 53.7664C43.5176 53.6178 42.9541 53.6905 42.4835 53.9678L38.8221 56.1253L35.7611 54.064C35.2359 53.7103 34.5742 53.6262 33.9773 53.8372L31.6766 54.6506C30.3118 55.1332 29.1302 56.0269 28.2945 57.2088L27.1089 58.8854C26.7901 59.3363 26.8971 59.9604 27.3481 60.2792C27.799 60.5981 28.4231 60.491 28.7419 60.0401L29.9274 58.3635C30.5244 57.5193 31.3684 56.8809 32.3433 56.5363L34.6439 55.7229L37.7049 57.7842C38.344 58.2146 39.1736 58.2396 39.8374 57.8484L43.4989 55.6909L45.6463 56.2983C47.2859 56.762 48.5764 58.0288 49.0706 59.6594L49.2622 60.2917C49.4224 60.8203 49.9807 61.1189 50.5092 60.9587C51.0378 60.7985 51.3364 60.2402 51.1762 59.7117L50.9846 59.0794C50.2928 56.7965 48.486 55.023 46.1906 54.3738L44.0432 53.7664ZM40.6447 43.2946C40.6447 42.7423 41.0924 42.2946 41.6447 42.2946H42.2163C42.7686 42.2946 43.2163 42.7423 43.2163 43.2946C43.2163 43.8469 42.7686 44.2946 42.2163 44.2946H41.6447C41.0924 44.2946 40.6447 43.8469 40.6447 43.2946ZM52.593 13.1058L52.119 13.7762C51.2848 14.9559 49.9495 15.6753 48.512 15.7277L49.4883 22.6309L49.7148 23.6015C50.6823 27.7479 56.6821 27.4474 57.2305 23.225L58.2221 23.3538L57.2308 23.2224L58.1777 16.0803C58.2023 15.8952 58.0582 15.7308 57.8715 15.7308C55.9904 15.7308 54.1998 14.9237 52.9541 13.5143L52.593 13.1058ZM59.2138 23.4826L60.1604 16.3432C60.3438 14.9596 59.2672 13.7308 57.8715 13.7308C56.5637 13.7308 55.3187 13.1696 54.4526 12.1897L53.5843 11.2074C52.989 10.5339 51.9212 10.5918 51.4023 11.3257L50.486 12.6215C49.9941 13.3172 49.1951 13.7308 48.343 13.7308C47.2165 13.7308 46.3507 14.7277 46.5084 15.8431L47.5142 22.9549L47.5204 22.9989L47.5305 23.0421L47.7671 24.056C49.2406 30.3707 58.3773 29.9135 59.2136 23.484L59.2138 23.4826Z" fill="#A1273C"/>
<path fill-rule="evenodd" clip-rule="evenodd" d="M19.5658 3.16129C21.3161 2.92555 23.0907 2.93456 24.8385 3.18808L25.387 3.26764C27.4263 3.56343 29.0547 5.11788 29.4449 7.1412L29.6745 8.33171C29.7969 8.9669 30.1161 9.54746 30.5868 9.99122C30.8039 10.1959 30.9269 10.481 30.9269 10.7793V11.5177C30.9269 11.9171 30.7622 12.2988 30.4716 12.5727C30.1243 12.9001 29.8488 13.2961 29.6623 13.7355L28.1606 17.275C27.217 19.4991 25.207 21.0904 22.8258 21.4986L22.6631 21.5265C21.6589 21.6986 20.6281 21.6291 19.6562 21.3236C17.7797 20.7339 16.2775 19.3159 15.5807 17.4765L14.2692 14.0143C14.0162 13.3463 13.552 12.7791 12.9472 12.399C12.5743 12.1646 12.3481 11.7552 12.3481 11.3148V11.0147C12.3481 10.6526 12.5341 10.316 12.8406 10.1233C13.5564 9.67344 14.0535 8.94688 14.2136 8.11676L14.4754 6.75945C14.8199 4.97278 16.2668 3.60561 18.0701 3.36273L19.5658 3.16129ZM25.1256 1.20879C23.1941 0.928636 21.233 0.918673 19.2988 1.17919L17.8031 1.38063C15.1486 1.73816 13.0188 3.75068 12.5116 6.38073L12.2498 7.73804C12.1946 8.02432 12.0231 8.27488 11.7763 8.43003C10.8875 8.98869 10.3481 9.96486 10.3481 11.0147V11.3148C10.3481 12.443 10.9277 13.492 11.8829 14.0923C12.1189 14.2407 12.3001 14.4621 12.3989 14.7228L13.7104 18.185C14.6244 20.5979 16.595 22.458 19.0565 23.2316C20.3316 23.6323 21.6837 23.7235 23.001 23.4977L23.1637 23.4698C26.2159 22.9466 28.7923 20.9069 30.0018 18.0562L31.5035 14.5166C31.5818 14.3319 31.6977 14.1655 31.8436 14.0279C32.535 13.3761 32.9269 12.4679 32.9269 11.5177V10.7793C32.9269 9.93014 32.5767 9.11854 31.9588 8.536C31.7934 8.3801 31.6813 8.17614 31.6383 7.95299L31.4087 6.76248C30.8573 3.90312 28.556 1.70636 25.6741 1.28835L25.1256 1.20879ZM9.48992 41.1388C9.48992 40.5865 9.0422 40.1388 8.48992 40.1388C7.93763 40.1388 7.48992 40.5865 7.48992 41.1388V41.1832V41.2277V41.2723V41.317V41.3617V41.4065V41.4513V41.4962V41.5412V41.5863V41.6314V41.6766V41.7219V41.7672V41.8126V41.858V41.9035V41.9491V41.9947V42.0404V42.0862V42.132V42.1778V42.2238V42.2698V42.3158V42.3619V42.4081V42.4543V42.5005V42.5469V42.5932V42.6397V42.6861V42.7327V42.7792V42.8259V42.8725V42.9193V42.9661V43.0129V43.0597V43.1067V43.1536V43.2006V43.2477V43.2948V43.3419V43.3891V43.4363V43.4836V43.5309V43.5783V43.6256V43.6731V43.7205V43.768V43.8156V43.8632V43.9108V43.9584V44.0061V44.0538V44.1016V44.1493V44.1972V44.245V44.2929V44.3408V44.3887V44.4367V44.4847V44.5327V44.5807V44.6288V44.6769V44.725V44.7732V44.8214V44.8696V44.9178V44.966V45.0143V45.0626V45.1109V45.1592V45.2076V45.2559V45.3043V45.3527V45.4011V45.4495V45.498V45.5465V45.5949V45.6434V45.6919V45.7404V45.789V45.8375V45.886V45.9346V45.9832V46.0317V46.0803V46.1289V46.1775V46.2261V46.2747V46.3233V46.3719V46.4205V46.4692V46.5178V46.5664V46.615V46.6637V46.7123V46.7609V46.8096V46.8582V46.9068V46.9554V47.004V47.0526V47.1012V47.1498V47.1984V47.247V47.2956V47.3441V47.3927V47.4413V47.4898V47.5383V47.5868V47.6353V47.6838V47.7323V47.7808V47.8292V47.8777V47.9261V47.9745V48.0229V48.0712V48.1196V48.1679V48.2162V48.2645V48.3128V48.361V48.4093V48.4575V48.5056V48.5538V48.6019V48.65V48.6981V48.7462V48.7942V48.8422V48.8902V48.9381V48.986V49.0339V49.0818V49.1296V49.1774V49.2251V49.2729V49.3206V49.3682V49.4158V49.4634V49.511V49.5585V49.606V49.6534V49.7008V49.7481V49.7955V49.8427V49.89V49.9372V49.9843V50.0314V50.0785V50.1255V50.1725V50.2194V50.2663V50.3131V50.3599V50.4067V50.4534V50.5V50.5466V50.5931V50.6396V50.6861V50.7325V50.7788V50.8251V50.8713V50.9175V50.9636V51.0096V51.0556V51.1016V51.1475V51.1933V51.2391V51.2848V51.3304V51.376V51.4215V51.467V51.5124V51.5577V51.603V51.6482V51.6933V51.7384V51.7834V51.8284V51.8732V51.918V51.9628V52.0074V52.052V52.0965V52.141V52.1854V52.2297V52.2739V52.3181V52.3621V52.4061V52.4501V52.4939V52.5377V52.5814V52.625V52.6686V52.712V52.7554V52.7987V52.8419V52.8851V52.9281V52.9711V53.014V53.0568V53.0995V53.1421V53.1846V53.2271V53.2695V53.3117V53.3539V53.396V53.438V53.48V53.5218V53.5635V53.6052V53.6467V53.6881V53.7295V53.7708V53.8119V53.853V53.894V53.9348V53.9756V54.0163V54.0569V54.0973V54.1377V54.178V54.2182V54.2582V54.2982V54.3381V54.3778V54.4175V54.457V54.4965V54.5358V54.575V54.6141V54.6531V54.692V54.7308V54.7695V54.808V54.8465V54.8848V54.9231V54.9612V54.9992V55.037V55.0748V55.1124V55.15V55.1874V55.2247V55.2619V55.2989V55.3359V55.3727V55.4094V55.4459V55.4824V55.5187V55.5549V55.591V55.6269V55.6627V55.6984V55.734V55.7695V55.8048V55.84V55.875V55.9099V55.9447V55.9794V56.0139V56.0483V56.0826V56.1167V56.1507V56.1846V56.2183V56.2519V56.2853V56.3187V56.3518V56.3849V56.4178V56.4505V56.4831V56.5156V56.5479V56.5801V56.6122V56.6441V56.6758V56.7074V56.7389V56.7702V56.8014V56.8324V56.8633V56.894V56.9246V56.955V56.9853V57.0154V57.0454V57.0752V57.1049V57.1344V57.1638V57.193V57.222V57.2509V57.2797V57.3082V57.3367V57.3649V57.393V57.421V57.4487V57.4764V57.5038V57.5311V57.5582V57.5852V57.612V57.6387V57.6651V57.6914V57.7176V57.7435V57.7693V57.795V57.8204V57.8457V57.8709V57.8958V57.9206V57.9452V57.9696V57.9939V58.018V58.0419V58.0656V58.0892V58.1126V58.1358V58.1588V58.1817V58.2043V58.2268V58.2491V58.2712V58.2932V58.315V58.3365V58.3579V58.3791V58.4002V58.421V58.4417V58.4621V58.4824V58.5025V58.5224V58.5421V58.5616V58.581V58.6001V58.6191V58.6378V58.6564V58.6748V58.6929V58.7109V58.7287V58.7463V58.7637V58.7809V58.7979V58.8147V58.8313V58.8477V58.8639V58.8799V58.8957V58.9113V58.9266V58.9418V58.9568V58.9716V58.9862V59.0005V59.0147V59.0286V59.0424V59.0559V59.0692V59.0824V59.0953V59.108V59.1204V59.1327V59.1448V59.1566V59.1682V59.1796V59.1908V59.2018V59.2126V59.2231V59.2335V59.2436V59.2535V59.2631V59.2726V59.2818V59.2908V59.2996V59.3082V59.3165V59.3246V59.3325V59.3402V59.3476V59.3549V59.3618V59.3686V59.3751V59.3814V59.3875V59.3933V59.3989V59.4043V59.4095V59.4144V59.4191V59.4235V59.4277V59.4317V59.4354V59.4389V59.4422V59.4452V59.448V59.4505V59.4529V59.4549V59.4568V59.4583V59.4597V59.4608V59.4616V59.4623V59.4626C7.48992 59.4627 7.48992 59.4627 8.48992 59.4627H7.48992C7.48992 60.015 7.93763 60.4627 8.48992 60.4627C9.0422 60.4627 9.48992 60.015 9.48992 59.4627H8.48992C9.48992 59.4627 9.48992 59.4627 9.48992 59.4626V59.4623V59.4616V59.4608V59.4597V59.4583V59.4568V59.4549V59.4529V59.4505V59.448V59.4452V59.4422V59.4389V59.4354V59.4317V59.4277V59.4235V59.4191V59.4144V59.4095V59.4043V59.3989V59.3933V59.3875V59.3814V59.3751V59.3686V59.3618V59.3549V59.3476V59.3402V59.3325V59.3246V59.3165V59.3082V59.2996V59.2908V59.2818V59.2726V59.2631V59.2535V59.2436V59.2335V59.2231V59.2126V59.2018V59.1908V59.1796V59.1682V59.1566V59.1448V59.1327V59.1204V59.108V59.0953V59.0824V59.0692V59.0559V59.0424V59.0286V59.0147V59.0005V58.9862V58.9716V58.9568V58.9418V58.9266V58.9113V58.8957V58.8799V58.8639V58.8477V58.8313V58.8147V58.7979V58.7809V58.7637V58.7463V58.7287V58.7109V58.6929V58.6748V58.6564V58.6378V58.6191V58.6001V58.581V58.5616V58.5421V58.5224V58.5025V58.4824V58.4621V58.4417V58.421V58.4002V58.3791V58.3579V58.3365V58.315V58.2932V58.2712V58.2491V58.2268V58.2043V58.1817V58.1588V58.1358V58.1126V58.0892V58.0656V58.0419V58.018V57.9939V57.9696V57.9452V57.9206V57.8958V57.8709V57.8457V57.8204V57.795V57.7693V57.7435V57.7176V57.6914V57.6651V57.6387V57.612V57.5852V57.5582V57.5311V57.5038V57.4764V57.4487V57.421V57.393V57.3649V57.3367V57.3082V57.2797V57.2509V57.222V57.193V57.1638V57.1344V57.1049V57.0752V57.0454V57.0154V56.9853V56.955V56.9246V56.894V56.8633V56.8324V56.8014V56.7702V56.7389V56.7074V56.6758V56.6441V56.6122V56.5801V56.5479V56.5156V56.4831V56.4505V56.4178V56.3849V56.3518V56.3187V56.2853V56.2519V56.2183V56.1846V56.1507V56.1167V56.0826V56.0483V56.0139V55.9794V55.9447V55.9099V55.875V55.84V55.8048V55.7695V55.734V55.6984V55.6627V55.6269V55.591V55.5549V55.5187V55.4824V55.4459V55.4094V55.3727V55.3359V55.2989V55.2619V55.2247V55.1874V55.15V55.1124V55.0748V55.037V54.9992V54.9612V54.9231V54.8848V54.8465V54.808V54.7695V54.7308V54.692V54.6531V54.6141V54.575V54.5358V54.4965V54.457V54.4175V54.3778V54.3381V54.2982V54.2582V54.2182V54.178V54.1377V54.0973V54.0569V54.0163V53.9756V53.9348V53.894V53.853V53.8119V53.7708V53.7295V53.6881V53.6467V53.6052V53.5635V53.5218V53.48V53.438V53.396V53.3539V53.3117V53.2695V53.2271V53.1846V53.1421V53.0995V53.0568V53.014V52.9711V52.9281V52.8851V52.8419V52.7987V52.7554V52.712V52.6686V52.625V52.5814V52.5377V52.4939V52.4501V52.4061V52.3621V52.3181V52.2739V52.2297V52.1854V52.141V52.0965V52.052V52.0074V51.9628V51.918V51.8732V51.8284V51.7834V51.7384V51.6933V51.6482V51.603V51.5577V51.5124V51.467V51.4215V51.376V51.3304V51.2848V51.2391V51.1933V51.1475V51.1016V51.0556V51.0096V50.9636V50.9175V50.8713V50.8251V50.7788V50.7325V50.6861V50.6396V50.5931V50.5466V50.5V50.4534V50.4067V50.3599V50.3131V50.2663V50.2194V50.1725V50.1255V50.0785V50.0314V49.9843V49.9372V49.89V49.8427V49.7955V49.7481V49.7008V49.6534V49.606V49.5585V49.511V49.4634V49.4158V49.3682V49.3206V49.2729V49.2251V49.1774V49.1296V49.0818V49.0339V48.986V48.9381V48.8902V48.8422V48.7942V48.7462V48.6981V48.65V48.6019V48.5538V48.5056V48.4575V48.4093V48.361V48.3128V48.2645V48.2162V48.1679V48.1196V48.0712V48.0229V47.9745V47.9261V47.8777V47.8292V47.7808V47.7323V47.6838V47.6353V47.5868V47.5383V47.4898V47.4413V47.3927V47.3441V47.2956V47.247V47.1984V47.1498V47.1012V47.0526V47.004V46.9554V46.9068V46.8582V46.8096V46.7609V46.7123V46.6637V46.615V46.5664V46.5178V46.4692V46.4205V46.3719V46.3233V46.2747V46.2261V46.1775V46.1289V46.0803V46.0317V45.9832V45.9346V45.886V45.8375V45.789V45.7404V45.6919V45.6434V45.5949V45.5465V45.498V45.4495V45.4011V45.3527V45.3043V45.2559V45.2076V45.1592V45.1109V45.0626V45.0143V44.966V44.9178V44.8696V44.8214V44.7732V44.725V44.6769V44.6288V44.5807V44.5327V44.4847V44.4367V44.3887V44.3408V44.2929V44.245V44.1972V44.1493V44.1016V44.0538V44.0061V43.9584V43.9108V43.8632V43.8156V43.768V43.7205V43.6731V43.6256V43.5783V43.5309V43.4836V43.4363V43.3891V43.3419V43.2948V43.2477V43.2006V43.1536V43.1067V43.0597V43.0129V42.9661V42.9193V42.8725V42.8259V42.7792V42.7327V42.6861V42.6397V42.5932V42.5469V42.5005V42.4543V42.4081V42.3619V42.3158V42.2698V42.2238V42.1778V42.132V42.0862V42.0404V41.9947V41.9491V41.9035V41.858V41.8126V41.7672V41.7219V41.6766V41.6314V41.5863V41.5412V41.4962V41.4513V41.4065V41.3617V41.317V41.2723V41.2277V41.1832V41.1388ZM16.6361 11.4971C16.6361 10.9449 17.0838 10.4971 17.6361 10.4971H19.351C19.9033 10.4971 20.351 10.9449 20.351 11.4971C20.351 12.0494 19.9033 12.4971 19.351 12.4971H17.6361C17.0838 12.4971 16.6361 12.0494 16.6361 11.4971ZM24.4957 10.4971C23.9434 10.4971 23.4957 10.9449 23.4957 11.4971C23.4957 12.0494 23.9434 12.4971 24.4957 12.4971H26.2106C26.7629 12.4971 27.2106 12.0494 27.2106 11.4971C27.2106 10.9449 26.7629 10.4971 26.2106 10.4971H24.4957ZM14.7533 26.6969C15.5509 26.6526 16.2649 27.1877 16.4464 27.9656L22.6113 54.385C22.7368 54.9229 22.4026 55.4606 21.8647 55.5861C21.3269 55.7116 20.7892 55.3774 20.6637 54.8395L14.5665 28.7103L10.1897 28.953C7.51754 29.1012 4.98385 30.1895 3.03658 32.0253C2.41245 32.6138 2.05865 33.4336 2.05865 34.2914V57.307C2.05865 57.8593 1.61094 58.307 1.05865 58.307C0.506369 58.307 0.0586548 57.8593 0.0586548 57.307V34.2914C0.0586548 32.8827 0.639655 31.5364 1.6646 30.5701C3.95521 28.4105 6.93564 27.1304 10.0789 26.9561L14.7533 26.6969ZM28.9564 26.2289C27.9123 26.1195 26.9613 26.8361 26.7786 27.8699L25.7975 33.4196C25.7014 33.9634 26.0643 34.4822 26.6082 34.5784C27.152 34.6745 27.6708 34.3116 27.767 33.7677L28.748 28.218L33.63 28.7294C36.278 29.0068 38.7355 30.2352 40.5467 32.1867L41.4834 33.196C41.8591 33.6008 42.4918 33.6244 42.8967 33.2487C43.3015 32.873 43.3251 32.2403 42.9494 31.8355L42.0126 30.8262C39.8722 28.5199 36.9678 27.0681 33.8384 26.7403L28.9564 26.2289ZM22.6375 30.1435V38.983C22.6375 39.5353 22.1898 39.983 21.6375 39.983C21.0852 39.983 20.6375 39.5353 20.6375 38.983V30.1435C19.8758 29.7937 19.351 29.0568 19.351 28.2043C19.351 27.0137 20.3747 26.0485 21.6375 26.0485C22.9003 26.0485 23.9241 27.0137 23.9241 28.2043C23.9241 29.0568 23.3992 29.7937 22.6375 30.1435Z" fill="black"/>
</svg>
