<svg viewBox="0 0 72 60" fill="none" xmlns="http://www.w3.org/2000/svg">
<path fill-rule="evenodd" clip-rule="evenodd" d="M27.0393 0.180605C26.3968 -0.19081 25.5748 0.0289913 25.2034 0.671545C24.8319 1.3141 25.0517 2.13608 25.6943 2.5075L45.4735 13.9404C46.116 14.3119 46.938 14.0921 47.3094 13.4495C47.6808 12.807 47.461 11.985 46.8185 11.6136L27.0393 0.180605ZM26.522 8.74826L39.5888 16.2924L28.5626 35.3903L15.4958 27.8462L26.522 8.74826ZM25.5383 5.07685L43.2602 15.3086L37.2454 25.7267L70.4683 46.7314C71.0956 47.128 71.2826 47.958 70.886 48.5854C70.4894 49.2127 69.6593 49.3997 69.032 49.0031L35.9004 28.0562L29.5464 39.0617L11.8244 28.8299L25.5383 5.07685ZM7.78248 30.8169C8.15385 30.1743 8.97582 29.9544 9.6184 30.3258L29.3984 41.7573C30.041 42.1287 30.2608 42.9507 29.8895 43.5932C29.5181 44.2358 28.6961 44.4557 28.0535 44.0843L8.27355 32.6528C7.63097 32.2814 7.41111 31.4594 7.78248 30.8169Z" fill="#a1273c"/>
<path fill-rule="evenodd" clip-rule="evenodd" d="M7.03332 54.6247C5.54897 54.6247 4.34566 55.828 4.34566 57.3123H0V60H39.1745V57.3123H34.8288C34.8288 55.828 33.6255 54.6247 32.1412 54.6247H7.03332Z" fill="black"/>
</svg>
