<svg width="64" height="60" viewBox="0 0 64 60" fill="none" xmlns="http://www.w3.org/2000/svg">
<path fill-rule="evenodd" clip-rule="evenodd" d="M23.4459 0.668243C21.2368 0.668243 19.4459 2.4591 19.4459 4.66824V12.769C19.4459 13.3213 19.8936 13.769 20.4459 13.769C20.9982 13.769 21.4459 13.3213 21.4459 12.769V4.66824C21.4459 3.56367 22.3414 2.66824 23.4459 2.66824H55.5935C56.6981 2.66824 57.5935 3.56367 57.5935 4.66824V28.9898C57.5935 29.5421 58.0412 29.9898 58.5935 29.9898C59.1458 29.9898 59.5935 29.5421 59.5935 28.9898V4.66824C59.5935 2.45911 57.8026 0.668243 55.5935 0.668243H23.4459ZM17.2158 15.4064C14.4544 15.4064 12.2158 17.645 12.2158 20.4064V25.7234C12.2158 26.2756 12.6635 26.7234 13.2158 26.7234C13.7681 26.7234 14.2158 26.2756 14.2158 25.7234V20.4064C14.2158 18.7495 15.559 17.4064 17.2158 17.4064H28.6339C30.2907 17.4064 31.6339 18.7495 31.6339 20.4064V32.4316C31.6339 32.9838 32.0816 33.4316 32.6339 33.4316C33.1862 33.4316 33.6339 32.9838 33.6339 32.4316V20.4064C33.6339 17.645 31.3953 15.4064 28.6339 15.4064H17.2158ZM12.0132 29.6876H3.78125C3.22897 29.6876 2.78125 30.1353 2.78125 30.6876V48.1284C2.78125 48.6807 3.22897 49.1284 3.78125 49.1284H12.0132C12.5654 49.1284 13.0132 48.6807 13.0132 48.1284V30.6876C13.0132 30.1353 12.5654 29.6876 12.0132 29.6876ZM3.78125 27.6876C2.1244 27.6876 0.78125 29.0307 0.78125 30.6876V48.1284C0.78125 49.7853 2.1244 51.1284 3.78125 51.1284H12.0132C13.67 51.1284 15.0132 49.7853 15.0132 48.1284V30.6876C15.0132 29.0307 13.67 27.6876 12.0132 27.6876H3.78125ZM8.10644 47.4076C8.10644 47.5232 8.01277 47.6168 7.89721 47.6168C7.78166 47.6168 7.68799 47.5232 7.68799 47.4076C7.68799 47.2921 7.78166 47.1984 7.89721 47.1984C8.01277 47.1984 8.10644 47.2921 8.10644 47.4076ZM9.10644 47.4076C9.10644 48.0755 8.56505 48.6168 7.89721 48.6168C7.22938 48.6168 6.68799 48.0755 6.68799 47.4076C6.68799 46.7398 7.22938 46.1984 7.89721 46.1984C8.56505 46.1984 9.10644 46.7398 9.10644 47.4076ZM23.1625 42.0822L23.1629 42.0836L23.1638 42.0861L23.1648 42.0882C23.1643 42.0879 23.1644 42.0878 23.1648 42.0882C23.1649 42.0884 23.165 42.0885 23.165 42.0885L23.1648 42.0882L23.1669 42.0892C23.1681 42.0898 23.1695 42.0902 23.1708 42.0905C23.1721 42.0902 23.1735 42.0898 23.1747 42.0892L23.1768 42.0882L23.1778 42.0861C23.1781 42.0855 23.1784 42.0847 23.1786 42.084C23.1788 42.0834 23.179 42.0828 23.1791 42.0822C23.1788 42.0809 23.1784 42.0795 23.1778 42.0783L23.1768 42.0762L23.1747 42.0752C23.1735 42.0747 23.1721 42.0742 23.1708 42.0739L23.1691 42.0744L23.1669 42.0752L23.1648 42.0762L23.1638 42.0783L23.1632 42.0797L23.1625 42.0822ZM23.1708 44.0737C24.2707 44.0737 25.1623 43.1821 25.1623 42.0822C25.1623 40.9823 24.2707 40.0907 23.1708 40.0907C22.0709 40.0907 21.1793 40.9823 21.1793 42.0822C21.1793 43.1821 22.0709 44.0737 23.1708 44.0737ZM16.8275 45.4076C16.2752 45.4076 15.8275 45.8553 15.8275 46.4076C15.8275 46.9599 16.2752 47.4076 16.8275 47.4076H30.8111C31.3634 47.4076 31.8111 46.9599 31.8111 46.4076C31.8111 45.8553 31.3634 45.4076 30.8111 45.4076H16.8275Z" fill="black"/>
<path fill-rule="evenodd" clip-rule="evenodd" d="M48.7981 30.1717H46.6719V30.757H48.7981V30.1717ZM46.6719 28.1717C45.5673 28.1717 44.6719 29.0671 44.6719 30.1717V30.757C44.6719 30.8892 44.6847 31.0185 44.7092 31.1435C43.5734 31.4264 42.4975 31.861 41.5044 32.4245C41.4164 32.2669 41.3054 32.1186 41.1715 31.9847L40.7576 31.5708C39.9766 30.7897 38.7102 30.7897 37.9292 31.5708L36.4257 33.0743C35.6446 33.8553 35.6446 35.1217 36.4257 35.9027L36.8396 36.3166C36.924 36.401 37.0141 36.4763 37.1086 36.5425C36.3518 37.6936 35.7757 38.974 35.4205 40.3435C35.2617 40.303 35.0953 40.2814 34.9238 40.2814H34.3385C33.2339 40.2814 32.3385 41.1768 32.3385 42.2814V44.4076C32.3385 45.5122 33.2339 46.4076 34.3385 46.4076H34.9238C35.0591 46.4076 35.1913 46.3942 35.3191 46.3686C35.5945 47.6016 36.0477 48.7675 36.6504 49.8379C36.4668 49.9311 36.2947 50.0544 36.1412 50.2079L35.7273 50.6217C34.9463 51.4028 34.9463 52.6691 35.7273 53.4502L37.2308 54.9537C38.0119 55.7347 39.2782 55.7347 40.0592 54.9537L40.4731 54.5398C40.5697 54.4432 40.6544 54.3391 40.7271 54.2295C41.9723 55.0587 43.3711 55.6755 44.8717 56.0283C44.793 56.243 44.75 56.4749 44.75 56.7169V57.3022C44.75 58.4067 45.6454 59.3022 46.75 59.3022H48.8763C49.9808 59.3022 50.8763 58.4067 50.8763 57.3022V56.7169C50.8763 56.4749 50.8333 56.243 50.7546 56.0283C52.1207 55.7071 53.4024 55.1671 54.5607 54.4473C54.644 54.5873 54.7459 54.7194 54.8665 54.84L55.2804 55.2538C56.0614 56.0349 57.3277 56.0349 58.1088 55.2538L59.6123 53.7504C60.3933 52.9693 60.3933 51.703 59.6123 50.9219L59.1984 50.508C59.0688 50.3784 58.9258 50.2703 58.7739 50.1837C59.4778 49.0202 60.0018 47.7356 60.3071 46.3685C60.4349 46.3942 60.5671 46.4076 60.7025 46.4076H61.2878C62.3924 46.4076 63.2878 45.5122 63.2878 44.4076V42.2814C63.2878 41.1768 62.3924 40.2814 61.2878 40.2814H60.7025C60.531 40.2814 60.3645 40.303 60.2056 40.3436C59.835 38.9145 59.2238 37.5823 58.4177 36.393C58.549 36.3124 58.673 36.2152 58.7867 36.1015L59.2005 35.6877C59.9816 34.9066 59.9816 33.6403 59.2005 32.8592L57.6971 31.3557C56.916 30.5747 55.6497 30.5747 54.8686 31.3557L54.4547 31.7696C54.2741 31.9503 54.1352 32.1569 54.0381 32.3775C53.0247 31.8124 51.9266 31.3811 50.7676 31.1073C50.7876 30.9935 50.7981 30.8765 50.7981 30.757V30.1717C50.7981 29.0671 49.9027 28.1717 48.7981 28.1717H46.6719ZM58.6147 43.5663C58.6147 49.5318 53.7786 54.3679 47.8131 54.3679C41.8475 54.3679 37.0115 49.5318 37.0115 43.5663C37.0115 37.6007 41.8475 32.7646 47.8131 32.7646C53.7786 32.7646 58.6147 37.6007 58.6147 43.5663ZM50.0136 43.2072C50.0136 44.4225 49.0284 45.4076 47.8131 45.4076C46.5978 45.4076 45.6127 44.4225 45.6127 43.2072C45.6127 41.9919 46.5978 41.0067 47.8131 41.0067C49.0284 41.0067 50.0136 41.9919 50.0136 43.2072ZM52.0136 43.2072C52.0136 45.527 50.133 47.4076 47.8131 47.4076C45.4933 47.4076 43.6127 45.527 43.6127 43.2072C43.6127 40.8873 45.4933 39.0067 47.8131 39.0067C50.133 39.0067 52.0136 40.8873 52.0136 43.2072ZM34.3385 44.4076L34.3385 42.2814H34.9238L34.9238 44.4076H34.3385ZM60.7025 42.2814V44.4076H61.2878V42.2814H60.7025ZM56.2828 32.77L57.7863 34.2734L57.3724 34.6873L55.869 33.1838L56.2828 32.77ZM39.3434 32.985L37.8399 34.4885L38.2538 34.9024L39.7573 33.3989L39.3434 32.985ZM56.2807 53.4258L57.7842 51.9223L58.1981 52.3361L56.6946 53.8396L56.2807 53.4258ZM39.0589 53.1256L37.5554 51.6221L37.1415 52.0359L38.645 53.5394L39.0589 53.1256ZM46.75 56.7169H48.8763V57.3022H46.75V56.7169Z" fill="#A1273C"/>
</svg>
