<svg viewBox="0 0 64 61" fill="none" xmlns="http://www.w3.org/2000/svg">
<path fill-rule="evenodd" clip-rule="evenodd" d="M41.3873 11.0876C41.3873 16.1059 37.3191 20.1741 32.3008 20.1741C27.2825 20.1741 23.2144 16.1059 23.2144 11.0876C23.2144 6.06935 27.2825 2.00121 32.3008 2.00121C37.3191 2.00121 41.3873 6.06935 41.3873 11.0876ZM43.3836 11.0876C43.3836 17.2085 38.4217 22.1704 32.3008 22.1704C26.18 22.1704 21.2181 17.2085 21.2181 11.0876C21.2181 4.96682 26.18 0.0049057 32.3008 0.0049057C38.4217 0.0049057 43.3836 4.96682 43.3836 11.0876ZM17.5035 26.4804L8.17684 40.9346L3.19105 37.7174L12.5177 23.2633L17.5035 26.4804ZM12.0352 21.0251L19.7417 25.9978L8.65941 43.1727L0.952881 38.2L12.0352 21.0251ZM7.35889 37.4022C7.17958 37.4793 6.97171 37.3965 6.8946 37.2172C6.81749 37.0378 6.90034 36.83 7.07965 36.7529C7.25896 36.6757 7.46684 36.7586 7.54395 36.9379C7.62105 37.1172 7.5382 37.3251 7.35889 37.4022ZM7.99848 38.8895C6.99776 39.3198 5.83764 38.8575 5.4073 37.8567C4.97696 36.856 5.43934 35.6959 6.44007 35.2656C7.44079 34.8352 8.6009 35.2976 9.03125 36.2983C9.46159 37.299 8.99921 38.4592 7.99848 38.8895ZM47.1097 26.4804L56.4364 40.9346L61.4222 37.7174L52.0955 23.2633L47.1097 26.4804ZM52.5781 21.0251L44.8715 25.9978L55.9538 43.1727L63.6603 38.2L52.5781 21.0251ZM57.2543 37.4022C57.4336 37.4793 57.6415 37.3965 57.7186 37.2172C57.7957 37.0378 57.7129 36.83 57.5336 36.7529C57.3543 36.6757 57.1464 36.7586 57.0693 36.9379C56.9922 37.1172 57.075 37.3251 57.2543 37.4022ZM56.6147 38.8895C57.6155 39.3198 58.7756 38.8575 59.2059 37.8567C59.6363 36.856 59.1739 35.6959 58.1732 35.2656C57.1724 34.8352 56.0123 35.2976 55.582 36.2983C55.1516 37.299 55.614 38.4592 56.6147 38.8895Z" fill="#a1273c"/>
<path fill-rule="evenodd" clip-rule="evenodd" d="M29.991 13.7743L38.0467 5.8101L39.4502 7.22974L30.0016 16.571L29.9808 16.5501L29.9773 16.5537L25.4185 12.0935L26.8146 10.6666L29.991 13.7743ZM27.5427 28.9164C31.8654 27.3984 35.5761 27.8001 38.8142 28.3461C39.1837 28.4084 39.5524 28.4736 39.9182 28.5384L39.9193 28.5386L39.9204 28.5388C41.1279 28.7526 42.305 28.961 43.378 29.0391C44.8 29.1425 45.2261 29.1665 46.6198 28.7072L45.4987 26.9699C44.6875 27.1999 44.7732 27.139 43.5228 27.048C42.5617 26.9781 41.527 26.7951 40.3464 26.5864L40.3448 26.5861L40.3437 26.5859C39.9608 26.5182 39.5622 26.4477 39.1461 26.3775C35.8043 25.8141 31.6868 25.3453 26.8813 27.0328C25.9922 27.345 25.0349 27.944 24.1196 28.6889L23.7874 28.717C21.854 28.8805 20.3119 28.6012 18.9597 27.2098L17.8793 28.8841C19.2081 30.2515 20.2307 30.4014 22.0847 30.657C22.0366 30.7118 21.989 30.7667 21.9419 30.8217C21.2219 31.6621 20.5841 32.57 20.1347 33.454C19.705 34.2993 19.391 35.2324 19.4508 36.1058C19.4579 37.0425 19.7191 37.8401 20.2719 38.4153C20.829 38.9949 21.5567 39.2177 22.2304 39.2496C23.518 39.3106 24.9316 38.6983 25.7322 37.8965C26.8112 36.816 27.5981 36.0284 28.222 35.4449C28.8501 34.8575 29.2665 34.5218 29.6021 34.3177C30.1259 33.9994 30.4707 33.9667 31.5725 33.9634C33.2726 34.9924 34.9154 35.9625 36.4714 36.8814C39.9144 38.9146 42.9331 40.6973 45.2103 42.3129C46.8891 43.5039 48.0518 44.5289 48.6701 45.4121C48.973 45.8448 49.1071 46.1907 49.1421 46.4613C49.1742 46.7096 49.131 46.9471 48.9705 47.2111C48.5445 47.912 48.2358 48.0749 47.9752 48.1178C47.6241 48.1756 47.0385 48.0741 45.9469 47.5623C44.8846 47.0643 43.526 46.2708 41.6873 45.1799L41.145 44.8579C39.4209 43.8339 37.3313 42.5929 34.7867 41.1674C34.3058 40.898 33.6975 41.0695 33.4281 41.5504C33.1586 42.0313 33.3301 42.6396 33.8111 42.909C36.3324 44.3215 38.4014 45.5503 40.1257 46.5744L40.6687 46.8967C42.4822 47.9727 43.9311 48.8221 45.0994 49.3698C45.2664 49.4481 45.4317 49.5223 45.5956 49.5915C45.6512 49.6338 45.712 49.6708 45.7777 49.7014C45.7847 49.7055 45.8003 49.7151 45.8205 49.7308C45.8665 49.7665 45.9239 49.8234 45.9677 49.9067C46.0254 50.0163 46.198 50.4288 45.7128 51.4014C45.4105 51.8806 45.1469 52.0302 44.8502 52.078C44.4568 52.1414 43.8202 52.054 42.732 51.6254C42.6962 51.6113 42.66 51.5968 42.6236 51.5821C42.5431 51.5373 42.4673 51.5005 42.3997 51.4706C42.2823 51.4186 42.179 51.3825 42.1013 51.3586L42.0816 51.3526C40.2919 50.5614 37.8254 49.1738 34.27 47.1737C33.519 46.7512 32.7191 46.3012 31.8671 45.8238C31.3862 45.5544 30.7779 45.7259 30.5084 46.2068C30.239 46.6878 30.4105 47.2961 30.8914 47.5655C31.7251 48.0325 32.5138 48.4764 33.2601 48.8964L33.2641 48.8987C36.7779 50.8763 39.3515 52.3247 41.2614 53.1722C41.3057 53.1959 41.3522 53.2164 41.4008 53.2334C41.5087 53.2804 41.6144 53.3255 41.718 53.3685C41.7372 53.3828 41.7538 53.3975 41.7674 53.412C41.7931 53.4397 41.8115 53.4678 41.8167 53.5316C41.823 53.6092 41.813 53.81 41.631 54.1747C41.471 54.4395 41.1979 54.6254 40.6269 54.6602C40.0018 54.6983 39.1387 54.537 38.0576 54.1559C35.9095 53.3986 33.2438 51.9001 30.5865 50.1815C30.1236 49.8821 29.5057 50.0147 29.2063 50.4776C28.9069 50.9405 29.0395 51.5584 29.5024 51.8578C32.1905 53.5963 35.0166 55.2005 37.3938 56.0386C37.5368 56.089 37.6795 56.1372 37.8216 56.1827C37.8265 56.2648 37.8086 56.4495 37.6506 56.7796C37.5684 56.8615 37.3799 56.9852 36.9874 57.0746C36.537 57.1771 35.9259 57.2077 35.1846 57.1387C33.9483 57.0235 32.4627 56.6421 30.9776 56.0046C31.4138 54.6985 31.0128 53.2034 29.8682 52.3034C29.4621 51.9841 29.0052 51.7734 28.5326 51.6672C29.4074 50.0286 29.0096 47.9495 27.4986 46.7614C26.8773 46.2729 26.1539 46.0028 25.4212 45.9401C25.9312 44.4987 25.4984 42.8321 24.2297 41.8346C22.6378 40.5829 20.3325 40.8587 19.0808 42.4506L19.0155 42.5337C18.8016 42.1168 18.4966 41.7383 18.1042 41.4297C16.6475 40.2843 14.538 40.5367 13.3926 41.9934L12.807 42.7382C12.05 41.5168 11.7616 40.9758 10.7136 39.9892L9.61984 41.6843C10.7172 42.7174 10.7471 43.0958 11.4763 44.4149L11.4981 44.4028L11.3519 44.5887C10.2065 46.0454 10.4589 48.1549 11.9156 49.3003C12.3959 49.6779 12.9471 49.9036 13.5113 49.9843C13.1235 51.3692 13.5754 52.9131 14.7763 53.8574C15.6903 54.576 16.8394 54.7912 17.8892 54.5428C18.0131 55.5264 18.5093 56.4635 19.3501 57.1246C20.4975 58.0268 21.9929 58.184 23.253 57.6659C23.4493 58.2856 23.8275 58.8549 24.377 59.287C25.8338 60.4325 27.9432 60.1801 29.0886 58.7234L29.8884 57.7063C31.6415 58.4959 33.4461 58.9817 34.9995 59.1264C35.8747 59.2079 36.7108 59.185 37.4305 59.0211C38.1352 58.8607 38.8495 58.5356 39.3028 57.91L39.3472 57.8486L39.3819 57.7811C39.5927 57.3715 39.725 56.985 39.7837 56.6245C40.1163 56.6607 40.4391 56.6717 40.7485 56.6528C41.8039 56.5884 42.7913 56.1615 43.373 55.1506L43.3855 55.1288L43.3969 55.1064C43.5878 54.7322 43.7159 54.3681 43.7756 54.0153C44.2642 54.1016 44.7283 54.1197 45.1679 54.0489C46.2009 53.8824 46.9126 53.2617 47.4342 52.4136L47.4554 52.3791L47.4737 52.3431C47.9025 51.4999 48.0687 50.7578 48.0384 50.1189C48.1259 50.1122 48.2129 50.1018 48.2994 50.0876C49.383 49.9093 50.1092 49.1811 50.6764 48.248C51.064 47.6103 51.2141 46.9187 51.1219 46.2054C51.0723 45.8216 50.9553 45.451 50.7892 45.0947C52.7391 43.9258 53.5268 43.442 55.0176 41.7218L53.9577 40.0792C52.5758 41.6736 51.4624 42.3801 49.647 43.4513C48.8175 42.5389 47.6827 41.6193 46.3654 40.6847C44.0185 39.0197 40.8798 37.1659 37.3891 35.1043C35.8668 34.2052 34.2776 33.2666 32.6579 32.2869C32.4756 32.09 32.2149 31.9668 31.9254 31.9668L31.7134 31.9665C30.5331 31.9643 29.6334 31.9626 28.5653 32.6118C28.0473 32.9266 27.5088 33.3786 26.8584 33.9869C26.2037 34.5992 25.3886 35.4154 24.3196 36.486C23.8942 36.912 23.0192 37.2884 22.3248 37.2555C22.0075 37.2405 21.8207 37.1459 21.7112 37.0319C21.6051 36.9215 21.447 36.6639 21.447 36.0665V36.0253L21.4436 35.9842C21.4154 35.6437 21.5413 35.0923 21.9143 34.3586C22.2747 33.6498 22.8132 32.8731 23.4579 32.1205C24.7739 30.5844 26.3769 29.3257 27.5427 28.9164ZM14.9619 43.2273L12.9212 45.8226C12.4573 46.4127 12.5595 47.2671 13.1496 47.731C13.7396 48.1949 14.594 48.0927 15.0579 47.5027L17.0986 44.9074C17.5625 44.3174 17.4603 43.463 16.8703 42.999C16.2802 42.5351 15.4258 42.6373 14.9619 43.2273ZM15.7296 49.9424L20.6501 43.6845C21.2204 42.9593 22.2706 42.8337 22.9958 43.4039C23.7211 43.9742 23.8467 45.0244 23.2765 45.7496L18.356 52.0075C17.7857 52.7327 16.7355 52.8583 16.0103 52.2881C15.285 51.7178 15.1594 50.6676 15.7296 49.9424ZM23.5836 48.6515L20.2633 52.8743C19.6115 53.7032 19.7551 54.9036 20.584 55.5553C21.4129 56.2071 22.6133 56.0635 23.265 55.2346L26.5854 51.0117C27.2372 50.1828 27.0936 48.9825 26.2647 48.3307C25.4357 47.6789 24.2354 47.8225 23.5836 48.6515ZM25.3827 55.8094L26.7259 54.1011C27.1898 53.511 28.0442 53.4088 28.6343 53.8727C29.2243 54.3367 29.3265 55.1911 28.8626 55.7811L27.5194 57.4894C27.0554 58.0795 26.201 58.1817 25.611 57.7178C25.0209 57.2538 24.9187 56.3994 25.3827 55.8094Z" fill="black"/>
</svg>
