<svg width="64" height="54" viewBox="0 0 64 54" fill="none" xmlns="http://www.w3.org/2000/svg">
<path fill-rule="evenodd" clip-rule="evenodd" d="M21.9196 2.8786L4.45581 6.1109C3.36969 6.31193 2.65218 7.35537 2.8532 8.44149L10.5148 49.8365C10.7161 50.9238 11.7614 51.6415 12.8484 51.4386L25.7796 49.0249C26.4977 48.8908 27.0855 48.376 27.3131 47.6819L29.9646 39.5948C30.2313 38.7815 29.9509 37.8887 29.2672 37.3739L23.6079 33.1128C22.2321 32.0769 21.6738 30.2766 22.222 28.6439L25.5757 18.6574C25.8701 17.7808 25.5252 16.8167 24.7416 16.3258L20.1822 13.4693C18.3436 12.3174 17.7585 9.9096 18.8636 8.04238L21.9196 2.8786ZM4.09182 4.1443C1.91958 4.54636 0.48455 6.63323 0.886602 8.80548L8.54824 50.2005C8.95072 52.3751 11.0414 53.8104 13.2154 53.4046L26.1466 50.9909C27.5827 50.7228 28.7584 49.6932 29.2136 48.305L31.8651 40.2179C32.3984 38.5914 31.8376 36.8058 30.4702 35.7762L24.8109 31.5151C24.123 30.9971 23.8438 30.097 24.118 29.2806L27.4717 19.2941C28.0604 17.5409 27.3706 15.6128 25.8035 14.631L21.2441 11.7745C20.3247 11.1985 20.0322 9.99462 20.5847 9.061L23.6408 3.89722C24.5153 2.41963 23.2439 0.599519 21.5556 0.911998L4.09182 4.1443ZM18.7571 16.027C18.8516 16.5711 18.487 17.0888 17.9429 17.1832L9.79083 18.598C9.24668 18.6925 8.729 18.3279 8.63456 17.7837C8.54013 17.2396 8.90469 16.7219 9.44884 16.6275L17.6009 15.2127C18.145 15.1182 18.6627 15.4828 18.7571 16.027ZM19.4414 23.9264C19.9856 23.832 20.3501 23.3143 20.2557 22.7701C20.1612 22.226 19.6436 21.8614 19.0994 21.9559L10.9474 23.3707C10.4032 23.4651 10.0387 23.9828 10.1331 24.5269C10.2275 25.0711 10.7452 25.4356 11.2894 25.3412L19.4414 23.9264ZM22.837 38.6113C22.9314 39.1555 22.5669 39.6732 22.0227 39.7676L13.8707 41.1824C13.3265 41.2768 12.8088 40.9123 12.7144 40.3681C12.62 39.824 12.9845 39.3063 13.5287 39.2119L21.6807 37.7971C22.2249 37.7026 22.7425 38.0672 22.837 38.6113ZM18.091 31.7838C18.6327 31.6767 18.9851 31.1506 18.8779 30.6088C18.7707 30.067 18.2446 29.7147 17.7028 29.8219L11.9741 30.9551C11.4323 31.0622 11.08 31.5883 11.1871 32.1301C11.2943 32.6719 11.8204 33.0242 12.3622 32.9171L18.091 31.7838Z" fill="black"/>
<path fill-rule="evenodd" clip-rule="evenodd" d="M33.6214 48.5025L51.0688 51.8224C52.1539 52.0288 53.2009 51.3166 53.4074 50.2315L61.2766 8.87536C61.4833 7.78909 60.7693 6.74123 59.6827 6.53619L46.2729 4.00576C45.6886 3.89549 45.0855 4.05096 44.6273 4.42996L39.5917 8.59525C38.655 9.37005 38.6204 10.7944 39.5183 11.6137L43.1639 14.9403C44.8262 16.4572 44.9106 19.0463 43.3505 20.6681L35.8738 28.4409C35.2986 29.0388 35.1524 29.9298 35.5061 30.6802L39.7705 39.7262C40.566 41.4136 40.0894 43.4269 38.6218 44.5786L33.6214 48.5025ZM50.695 53.7871C52.8652 54.2001 54.9592 52.7755 55.3722 50.6053L63.2413 9.24921C63.6547 7.07667 62.2267 4.98096 60.0535 4.57088L46.6438 2.04044C45.4751 1.81992 44.269 2.13084 43.3526 2.88885L38.3169 7.05414C36.4435 8.60372 36.3743 11.4524 38.1702 13.0911L41.8158 16.4177C42.647 17.1761 42.6891 18.4707 41.9091 19.2816L34.4324 27.0544C33.2821 28.2503 32.9895 30.0321 33.6971 31.533L37.9614 40.579C38.3592 41.4227 38.1209 42.4293 37.3871 43.0052L32.3867 46.9291C31.036 47.9891 31.5609 50.1463 33.2476 50.4673L50.695 53.7871ZM56.2134 16.6505C56.0973 17.1904 55.5654 17.534 55.0255 17.4178L46.9366 15.678C46.3966 15.5619 46.0531 15.03 46.1692 14.4901C46.2854 13.9502 46.8172 13.6066 47.3571 13.7227L55.446 15.4626C55.986 15.5787 56.3295 16.1105 56.2134 16.6505ZM51.5324 31.8658C52.0746 31.9705 52.5991 31.6157 52.7038 31.0735C52.8084 30.5312 52.4537 30.0067 51.9114 29.9021L43.8803 28.3519C43.3381 28.2473 42.8136 28.602 42.7089 29.1443C42.6043 29.6866 42.959 30.211 43.5013 30.3157L51.5324 31.8658ZM51.4121 38.422C51.296 38.9619 50.7642 39.3055 50.2242 39.1893L42.1353 37.4495C41.5954 37.3334 41.2518 36.8015 41.368 36.2616C41.4841 35.7216 42.0159 35.3781 42.5559 35.4942L50.6448 37.234C51.1847 37.3502 51.5283 37.882 51.4121 38.422ZM53.5292 24.2011C54.0713 24.3069 54.5965 23.9532 54.7023 23.4112C54.8081 22.8691 54.4544 22.3439 53.9124 22.2381L46.0419 20.7019C45.4999 20.5961 44.9747 20.9497 44.8689 21.4918C44.7631 22.0338 45.1167 22.559 45.6588 22.6648L53.5292 24.2011Z" fill="#A1273C"/>
</svg>
